<svg width="80" height="80" viewBox="0 0 80 80" fill="none" xmlns="http://www.w3.org/2000/svg">
<g clip-path="url(#clip0_1131_135)">
<g filter="url(#filter0_i_1131_135)">
<path fill-rule="evenodd" clip-rule="evenodd" d="M34.7533 10.46C35.3558 10.3537 35.9758 10.4136 36.5467 10.6332C37.1177 10.8528 37.618 11.2238 37.994 11.7063C38.3699 12.1889 38.6073 12.7647 38.6806 13.3721C38.7539 13.9794 38.6604 14.5952 38.41 15.1533C36.7492 18.853 36.2523 22.9701 36.9852 26.9587C37.7181 30.9472 39.6461 34.6188 42.5137 37.4863C45.3812 40.3539 49.0528 42.282 53.0413 43.0149C57.0299 43.7478 61.147 43.2508 64.8467 41.59C65.405 41.3388 66.0212 41.2446 66.629 41.3175C67.2369 41.3904 67.8133 41.6276 68.2964 42.0037C68.7794 42.3798 69.1508 42.8805 69.3705 43.4519C69.5902 44.0233 69.65 44.6438 69.5433 45.2467C68.2386 52.6386 64.2103 59.2729 58.2534 63.84C52.2965 68.4072 44.844 70.5753 37.3667 69.9164C29.8895 69.2576 22.9309 65.8196 17.8645 60.2812C12.7981 54.7427 9.99194 47.5062 10 40C10.0001 32.9532 12.4806 26.1313 17.0065 20.7301C21.5325 15.3289 27.8152 11.6931 34.7533 10.46Z" fill="url(#paint0_linear_1131_135)"/>
</g>
<path d="M64.9493 41.818L64.9491 41.8181C61.2032 43.4997 57.0346 44.0028 52.9962 43.2607C48.9577 42.5187 45.2403 40.5665 42.3369 37.6631C39.4335 34.7597 37.4813 31.0423 36.7393 27.0039C35.9972 22.9654 36.5003 18.7968 38.1819 15.051C38.4137 14.5343 38.5003 13.9642 38.4324 13.402C38.3646 12.8398 38.1448 12.3067 37.7968 11.86C37.4487 11.4133 36.9855 11.0698 36.457 10.8665C35.9285 10.6633 35.3547 10.6078 34.7971 10.7061C27.9168 11.9289 21.6864 15.5344 17.1982 20.8906C12.7099 26.2468 10.2501 33.0119 10.25 40V40.0003C10.242 47.4439 13.0247 54.6201 18.049 60.1124C23.0732 65.6047 29.9738 69.014 37.3887 69.6674C44.8036 70.3208 52.1941 68.1707 58.1013 63.6416C64.0085 59.1126 68.0033 52.5336 69.2971 45.2032L69.2972 45.2031C69.3959 44.645 69.3406 44.0706 69.1372 43.5416C68.9338 43.0126 68.59 42.5491 68.1428 42.201C67.6956 41.8528 67.162 41.6332 66.5993 41.5657C66.0365 41.4982 65.4661 41.5854 64.9493 41.818Z" stroke="#EF7E30" stroke-width="0.5"/>
<g clip-path="url(#clip1_1131_135)">
<g filter="url(#filter1_i_1131_135)">
<path d="M56.3831 8.68438C58.6566 13.8588 62.6256 18.1588 67.6733 20.916C67.7582 20.9622 67.8288 21.0296 67.878 21.1111C67.9272 21.1927 67.9531 21.2855 67.9531 21.38C67.9531 21.4746 67.9272 21.5674 67.878 21.6489C67.8288 21.7305 67.7582 21.7979 67.6733 21.8441C62.6253 24.6017 58.6562 28.9023 56.3831 34.0774C56.3382 34.1756 56.2649 34.2591 56.1722 34.3176C56.0794 34.3762 55.9712 34.4074 55.8605 34.4074C55.7499 34.4074 55.6417 34.3762 55.5489 34.3176C55.4562 34.2591 55.3829 34.1756 55.338 34.0774C53.0649 28.9023 49.0958 24.6017 44.0477 21.8441C43.9629 21.7979 43.8922 21.7305 43.8431 21.6489C43.7939 21.5674 43.768 21.4746 43.768 21.38C43.768 21.2855 43.7939 21.1927 43.8431 21.1111C43.8922 21.0296 43.9629 20.9622 44.0477 20.916C49.0954 18.1588 53.0644 13.8588 55.338 8.68438C55.3829 8.58616 55.4562 8.5027 55.5489 8.44412C55.6417 8.38555 55.7499 8.35437 55.8605 8.35437C55.9712 8.35437 56.0794 8.38555 56.1722 8.44412C56.2649 8.5027 56.3382 8.58616 56.3831 8.68438Z" fill="url(#paint1_linear_1131_135)"/>
</g>
<path d="M67.5537 21.1355L67.5535 21.1354C62.4589 18.3525 58.4514 14.012 56.155 8.78689C56.1306 8.73417 56.0906 8.68828 56.0387 8.6555C55.9862 8.62238 55.9243 8.60437 55.8605 8.60437C55.7968 8.60437 55.7349 8.62238 55.6824 8.6555C55.6305 8.68828 55.5905 8.73417 55.566 8.78689C53.2697 14.012 49.2622 18.3525 44.1676 21.1354L44.1673 21.1355C44.1209 21.1609 44.0831 21.1972 44.0572 21.2402C44.0313 21.2831 44.018 21.3314 44.018 21.38C44.018 21.4287 44.0313 21.477 44.0572 21.5199C44.0831 21.5628 44.1209 21.5992 44.1673 21.6246L44.1676 21.6247C49.2626 24.4079 53.2701 28.7491 55.566 33.9748M67.5537 21.1355L55.338 34.0774M67.5537 21.1355C67.6002 21.1608 67.638 21.1972 67.6639 21.2402C67.6898 21.2831 67.7031 21.3314 67.7031 21.38C67.7031 21.4287 67.6898 21.477 67.6639 21.5199C67.638 21.5628 67.6002 21.5992 67.5537 21.6246L67.5535 21.6247C62.4585 24.4079 58.451 28.7491 56.1551 33.9748M67.5537 21.1355L67.6733 21.8441C62.6253 24.6017 58.6562 28.9023 56.3831 34.0774M55.566 33.9748C55.5663 33.9755 55.5666 33.9762 55.5669 33.9769L55.338 34.0774M55.566 33.9748C55.5658 33.9744 55.5656 33.9739 55.5654 33.9734L55.338 34.0774M55.566 33.9748C55.5905 34.0276 55.6305 34.0735 55.6824 34.1063C55.7349 34.1394 55.7967 34.1574 55.8605 34.1574C55.9243 34.1574 55.9862 34.1394 56.0387 34.1063C56.0906 34.0735 56.1306 34.0276 56.1551 33.9748M55.338 34.0774C55.3829 34.1756 55.4562 34.2591 55.5489 34.3176C55.6417 34.3762 55.7499 34.4074 55.8605 34.4074C55.9712 34.4074 56.0794 34.3762 56.1722 34.3176C56.2649 34.2591 56.3382 34.1756 56.3831 34.0774M56.1551 33.9748C56.1548 33.9755 56.1545 33.9762 56.1542 33.9769L56.3831 34.0774M56.1551 33.9748C56.1553 33.9744 56.1555 33.9739 56.1557 33.9734L56.3831 34.0774" stroke="#EF7E30" stroke-width="0.5"/>
</g>
</g>
<defs>
<filter id="filter0_i_1131_135" x="9.99997" y="10.4088" width="59.5948" height="60.6235" filterUnits="userSpaceOnUse" color-interpolation-filters="sRGB">
<feFlood flood-opacity="0" result="BackgroundImageFix"/>
<feBlend mode="normal" in="SourceGraphic" in2="BackgroundImageFix" result="shape"/>
<feColorMatrix in="SourceAlpha" type="matrix" values="0 0 0 0 0 0 0 0 0 0 0 0 0 0 0 0 0 0 127 0" result="hardAlpha"/>
<feOffset dy="1"/>
<feGaussianBlur stdDeviation="0.5"/>
<feComposite in2="hardAlpha" operator="arithmetic" k2="-1" k3="1"/>
<feColorMatrix type="matrix" values="0 0 0 0 1 0 0 0 0 0.688889 0 0 0 0 0.333333 0 0 0 1 0"/>
<feBlend mode="normal" in2="shape" result="effect1_innerShadow_1131_135"/>
</filter>
<filter id="filter1_i_1131_135" x="43.768" y="8.35437" width="24.1851" height="27.053" filterUnits="userSpaceOnUse" color-interpolation-filters="sRGB">
<feFlood flood-opacity="0" result="BackgroundImageFix"/>
<feBlend mode="normal" in="SourceGraphic" in2="BackgroundImageFix" result="shape"/>
<feColorMatrix in="SourceAlpha" type="matrix" values="0 0 0 0 0 0 0 0 0 0 0 0 0 0 0 0 0 0 127 0" result="hardAlpha"/>
<feOffset dy="1"/>
<feGaussianBlur stdDeviation="0.5"/>
<feComposite in2="hardAlpha" operator="arithmetic" k2="-1" k3="1"/>
<feColorMatrix type="matrix" values="0 0 0 0 1 0 0 0 0 0.688889 0 0 0 0 0.333333 0 0 0 1 0"/>
<feBlend mode="normal" in2="shape" result="effect1_innerShadow_1131_135"/>
</filter>
<linearGradient id="paint0_linear_1131_135" x1="39.7974" y1="10.4088" x2="39.7974" y2="70.0323" gradientUnits="userSpaceOnUse">
<stop stop-color="#FF9953"/>
<stop offset="1" stop-color="#EF7E30"/>
</linearGradient>
<linearGradient id="paint1_linear_1131_135" x1="55.8605" y1="8.35437" x2="55.8605" y2="34.4074" gradientUnits="userSpaceOnUse">
<stop stop-color="#FF9953"/>
<stop offset="1" stop-color="#EF7E30"/>
</linearGradient>
<clipPath id="clip0_1131_135">
<rect width="80" height="80" fill="white" transform="matrix(-1 0 0 1 80 0)"/>
</clipPath>
<clipPath id="clip1_1131_135">
<rect width="32.8205" height="36.9231" fill="white" transform="translate(38.9744 4.10254)"/>
</clipPath>
</defs>
</svg>
