<svg width="81" height="80" viewBox="0 0 81 80" fill="none" xmlns="http://www.w3.org/2000/svg">
<g filter="url(#filter0_i_1131_151)">
<path d="M49.0667 8.87331C49.6994 9.05033 50.291 9.35031 50.8077 9.75609C51.3244 10.1619 51.7561 10.6655 52.078 11.2382C52.4 11.8109 52.6059 12.4415 52.684 13.0938C52.7622 13.7461 52.711 14.4074 52.5334 15.04L37.7634 67.6633C37.4053 68.9403 36.5547 70.0228 35.3985 70.6726C34.2423 71.3224 32.8754 71.4863 31.5984 71.1283C30.3214 70.7703 29.2389 69.9196 28.5891 68.7634C27.9392 67.6073 27.7753 66.2403 28.1334 64.9633L42.9034 12.3333C43.0807 11.7009 43.381 11.1097 43.7869 10.5933C44.1928 10.077 44.6965 9.6457 45.2692 9.32408C45.8419 9.00246 46.4723 8.79682 47.1244 8.7189C47.7766 8.64099 48.4377 8.69232 49.07 8.86998L49.0667 8.87331ZM25.5334 22.3233C26.4697 23.2608 26.9956 24.5316 26.9956 25.8566C26.9956 27.1817 26.4697 28.4525 25.5334 29.39L14.9334 40L25.54 50.6066C26.4776 51.5446 27.0041 52.8166 27.0038 54.1428C27.0035 55.469 26.4764 56.7408 25.5384 57.6783C24.6004 58.6158 23.3284 59.1424 22.0022 59.1421C20.676 59.1418 19.4042 58.6146 18.4667 57.6766L4.32337 43.5333C3.38704 42.5958 2.86111 41.325 2.86111 40C2.86111 38.675 3.38704 37.4041 4.32337 36.4666L18.4634 22.3233C18.9277 21.8587 19.479 21.4901 20.0859 21.2386C20.6927 20.9871 21.3432 20.8577 22 20.8577C22.6569 20.8577 23.3074 20.9871 23.9142 21.2386C24.521 21.4901 25.069 21.8587 25.5334 22.3233ZM55.1334 29.39C54.6421 28.9322 54.2481 28.3802 53.9748 27.7669C53.7016 27.1536 53.5546 26.4915 53.5428 25.8201C53.5309 25.1488 53.6544 24.4819 53.9059 23.8593C54.1574 23.2367 54.5317 22.6712 55.0065 22.1964C55.4812 21.7216 56.0468 21.3473 56.6694 21.0958C57.292 20.8444 57.9588 20.7209 58.6302 20.7327C59.3015 20.7445 59.9636 20.8915 60.577 21.1648C61.1903 21.4381 61.7423 21.8321 62.2 22.3233L76.3434 36.4633C77.2807 37.401 77.8073 38.6725 77.8073 39.9983C77.8073 41.3241 77.2807 42.5957 76.3434 43.5333L62.2034 57.6766C61.7392 58.1411 61.188 58.5095 60.5814 58.761C59.9748 59.0124 59.3245 59.1419 58.6679 59.1421C58.0112 59.1422 57.361 59.013 56.7542 58.7619C56.1475 58.5107 55.5961 58.1425 55.1317 57.6783C54.6673 57.2141 54.2988 56.6629 54.0474 56.0563C53.7959 55.4497 53.6664 54.7995 53.6663 54.1428C53.6661 53.4862 53.7953 52.8359 54.0465 52.2292C54.2976 51.6224 54.6658 51.0711 55.13 50.6066L65.7367 40L55.1334 29.39Z" fill="#09244B"/>
<path d="M49.0667 8.87331C49.6994 9.05033 50.291 9.35031 50.8077 9.75609C51.3244 10.1619 51.7561 10.6655 52.078 11.2382C52.4 11.8109 52.6059 12.4415 52.684 13.0938C52.7622 13.7461 52.711 14.4074 52.5334 15.04L37.7634 67.6633C37.4053 68.9403 36.5547 70.0228 35.3985 70.6726C34.2423 71.3224 32.8754 71.4863 31.5984 71.1283C30.3214 70.7703 29.2389 69.9196 28.5891 68.7634C27.9392 67.6073 27.7753 66.2403 28.1334 64.9633L42.9034 12.3333C43.0807 11.7009 43.381 11.1097 43.7869 10.5933C44.1928 10.077 44.6965 9.6457 45.2692 9.32408C45.8419 9.00246 46.4723 8.79682 47.1244 8.7189C47.7766 8.64099 48.4377 8.69232 49.07 8.86998L49.0667 8.87331ZM25.5334 22.3233C26.4697 23.2608 26.9956 24.5316 26.9956 25.8566C26.9956 27.1817 26.4697 28.4525 25.5334 29.39L14.9334 40L25.54 50.6066C26.4776 51.5446 27.0041 52.8166 27.0038 54.1428C27.0035 55.469 26.4764 56.7408 25.5384 57.6783C24.6004 58.6158 23.3284 59.1424 22.0022 59.1421C20.676 59.1418 19.4042 58.6146 18.4667 57.6766L4.32337 43.5333C3.38704 42.5958 2.86111 41.325 2.86111 40C2.86111 38.675 3.38704 37.4041 4.32337 36.4666L18.4634 22.3233C18.9277 21.8587 19.479 21.4901 20.0859 21.2386C20.6927 20.9871 21.3432 20.8577 22 20.8577C22.6569 20.8577 23.3074 20.9871 23.9142 21.2386C24.521 21.4901 25.069 21.8587 25.5334 22.3233ZM55.1334 29.39C54.6421 28.9322 54.2481 28.3802 53.9748 27.7669C53.7016 27.1536 53.5546 26.4915 53.5428 25.8201C53.5309 25.1488 53.6544 24.4819 53.9059 23.8593C54.1574 23.2367 54.5317 22.6712 55.0065 22.1964C55.4812 21.7216 56.0468 21.3473 56.6694 21.0958C57.292 20.8444 57.9588 20.7209 58.6302 20.7327C59.3015 20.7445 59.9636 20.8915 60.577 21.1648C61.1903 21.4381 61.7423 21.8321 62.2 22.3233L76.3434 36.4633C77.2807 37.401 77.8073 38.6725 77.8073 39.9983C77.8073 41.3241 77.2807 42.5957 76.3434 43.5333L62.2034 57.6766C61.7392 58.1411 61.188 58.5095 60.5814 58.761C59.9748 59.0124 59.3245 59.1419 58.6679 59.1421C58.0112 59.1422 57.361 59.013 56.7542 58.7619C56.1475 58.5107 55.5961 58.1425 55.1317 57.6783C54.6673 57.2141 54.2988 56.6629 54.0474 56.0563C53.7959 55.4497 53.6664 54.7995 53.6663 54.1428C53.6661 53.4862 53.7953 52.8359 54.0465 52.2292C54.2976 51.6224 54.6658 51.0711 55.13 50.6066L65.7367 40L55.1334 29.39Z" fill="#1B52C8"/>
<path d="M49.0667 8.87331C49.6994 9.05033 50.291 9.35031 50.8077 9.75609C51.3244 10.1619 51.7561 10.6655 52.078 11.2382C52.4 11.8109 52.6059 12.4415 52.684 13.0938C52.7622 13.7461 52.711 14.4074 52.5334 15.04L37.7634 67.6633C37.4053 68.9403 36.5547 70.0228 35.3985 70.6726C34.2423 71.3224 32.8754 71.4863 31.5984 71.1283C30.3214 70.7703 29.2389 69.9196 28.5891 68.7634C27.9392 67.6073 27.7753 66.2403 28.1334 64.9633L42.9034 12.3333C43.0807 11.7009 43.381 11.1097 43.7869 10.5933C44.1928 10.077 44.6965 9.6457 45.2692 9.32408C45.8419 9.00246 46.4723 8.79682 47.1244 8.7189C47.7766 8.64099 48.4377 8.69232 49.07 8.86998L49.0667 8.87331ZM25.5334 22.3233C26.4697 23.2608 26.9956 24.5316 26.9956 25.8566C26.9956 27.1817 26.4697 28.4525 25.5334 29.39L14.9334 40L25.54 50.6066C26.4776 51.5446 27.0041 52.8166 27.0038 54.1428C27.0035 55.469 26.4764 56.7408 25.5384 57.6783C24.6004 58.6158 23.3284 59.1424 22.0022 59.1421C20.676 59.1418 19.4042 58.6146 18.4667 57.6766L4.32337 43.5333C3.38704 42.5958 2.86111 41.325 2.86111 40C2.86111 38.675 3.38704 37.4041 4.32337 36.4666L18.4634 22.3233C18.9277 21.8587 19.479 21.4901 20.0859 21.2386C20.6927 20.9871 21.3432 20.8577 22 20.8577C22.6569 20.8577 23.3074 20.9871 23.9142 21.2386C24.521 21.4901 25.069 21.8587 25.5334 22.3233ZM55.1334 29.39C54.6421 28.9322 54.2481 28.3802 53.9748 27.7669C53.7016 27.1536 53.5546 26.4915 53.5428 25.8201C53.5309 25.1488 53.6544 24.4819 53.9059 23.8593C54.1574 23.2367 54.5317 22.6712 55.0065 22.1964C55.4812 21.7216 56.0468 21.3473 56.6694 21.0958C57.292 20.8444 57.9588 20.7209 58.6302 20.7327C59.3015 20.7445 59.9636 20.8915 60.577 21.1648C61.1903 21.4381 61.7423 21.8321 62.2 22.3233L76.3434 36.4633C77.2807 37.401 77.8073 38.6725 77.8073 39.9983C77.8073 41.3241 77.2807 42.5957 76.3434 43.5333L62.2034 57.6766C61.7392 58.1411 61.188 58.5095 60.5814 58.761C59.9748 59.0124 59.3245 59.1419 58.6679 59.1421C58.0112 59.1422 57.361 59.013 56.7542 58.7619C56.1475 58.5107 55.5961 58.1425 55.1317 57.6783C54.6673 57.2141 54.2988 56.6629 54.0474 56.0563C53.7959 55.4497 53.6664 54.7995 53.6663 54.1428C53.6661 53.4862 53.7953 52.8359 54.0465 52.2292C54.2976 51.6224 54.6658 51.0711 55.13 50.6066L65.7367 40L55.1334 29.39Z" fill="url(#paint0_linear_1131_151)" fill-opacity="0.5"/>
</g>
<path d="M14.2264 40.0001L14.5797 39.6466L25.1796 29.0366C25.1796 29.0366 25.1796 29.0366 25.1797 29.0366C26.0223 28.1928 26.4956 27.0491 26.4956 25.8566C26.4956 24.6642 26.0223 23.5205 25.1797 22.6768L14.2264 40.0001ZM14.2264 40.0001L14.5798 40.3535M14.2264 40.0001L14.5798 40.3535M14.5798 40.3535L25.1864 50.9601C25.1864 50.9601 25.1865 50.9602 25.1865 50.9602C26.0302 51.8044 26.5041 52.9492 26.5038 54.1427C26.5035 55.3363 26.0291 56.4809 25.1849 57.3247C24.3407 58.1685 23.1959 58.6423 22.0023 58.6421C20.8087 58.6418 19.6641 58.1674 18.8203 57.3232L18.8203 57.3231M14.5798 40.3535L18.8203 57.3231M18.8203 57.3231L4.67715 43.18L18.8203 57.3231ZM18.817 22.6768L18.817 22.6768L4.67715 36.82C4.67709 36.82 4.67703 36.8201 4.67697 36.8202C3.83438 37.6639 3.36111 38.8076 3.36111 40C3.36111 41.1924 3.83436 42.336 4.67693 43.1798L18.817 22.6768ZM18.817 22.6768C19.2349 22.2586 19.7311 21.9269 20.2773 21.7005M18.817 22.6768L20.2773 21.7005M20.2773 21.7005C20.8235 21.4742 21.4088 21.3577 22 21.3577M20.2773 21.7005L22 21.3577M22 21.3577C22.5912 21.3577 23.1766 21.4742 23.7228 21.7005M22 21.3577L23.7228 21.7005M23.7228 21.7005C24.268 21.9265 24.761 22.2578 25.1796 22.6766L23.7228 21.7005ZM47.1838 9.21537C47.7053 9.15306 48.2333 9.1826 48.7438 9.30216L48.932 9.35482C49.5014 9.51414 50.0339 9.78412 50.4989 10.1493C50.9639 10.5145 51.3524 10.9678 51.6422 11.4832C51.9319 11.9987 52.1173 12.5661 52.1876 13.1532C52.2579 13.7403 52.2118 14.3355 52.052 14.9048L52.052 14.9049L37.282 67.5282L37.2819 67.5283C36.9597 68.6777 36.1941 69.6519 35.1535 70.2367C34.113 70.8216 32.8827 70.9691 31.7334 70.6469C30.584 70.3246 29.6098 69.559 29.0249 68.5185C28.4401 67.4779 28.2926 66.2476 28.6148 65.0983L43.3848 12.4684L43.3848 12.4683C43.5444 11.8992 43.8146 11.3671 44.18 10.9024C44.5453 10.4377 44.9986 10.0495 45.514 9.76003C46.0294 9.47057 46.5968 9.2855 47.1838 9.21537ZM55.487 29.0365L55.4807 29.0302L55.4742 29.0242C55.0321 28.6122 54.6775 28.1154 54.4315 27.5634C54.1856 27.0114 54.0533 26.4155 54.0427 25.8113C54.032 25.2071 54.1432 24.6069 54.3695 24.0466C54.5958 23.4863 54.9327 22.9773 55.36 22.5499C55.7873 22.1226 56.2963 21.7858 56.8566 21.5594C57.417 21.3331 58.0172 21.222 58.6214 21.2326C59.2256 21.2433 59.8215 21.3755 60.3735 21.6215C60.9255 21.8674 61.4223 22.2221 61.8342 22.6642L61.8403 22.6706L61.8465 22.6769L75.9898 36.8168C76.8334 37.6607 77.3073 38.8051 77.3073 39.9983C77.3073 41.1916 76.8334 42.3359 75.9898 43.1798L61.8498 57.3231L61.8497 57.3232C61.4319 57.7412 60.9359 58.0728 60.3899 58.2991C59.844 58.5254 59.2588 58.6419 58.6678 58.6421C58.0768 58.6422 57.4915 58.5259 56.9454 58.2999C56.3994 58.0739 55.9032 57.7425 55.4852 57.3247C55.0672 56.9069 54.7356 56.4108 54.5093 55.8649C54.283 55.3189 54.1664 54.7337 54.1663 54.1427C54.1661 53.5517 54.2824 52.9665 54.5085 52.4204C54.7345 51.8744 55.0658 51.3782 55.4836 50.9602C55.4836 50.9602 55.4836 50.9601 55.4837 50.9601L66.0903 40.3535L66.4437 40.0001L66.0904 39.6465L55.487 29.0365Z" stroke="#1B52C8"/>
<defs>
<filter id="filter0_i_1131_151" x="2.86111" y="8.68359" width="74.9462" height="63.6304" filterUnits="userSpaceOnUse" color-interpolation-filters="sRGB">
<feFlood flood-opacity="0" result="BackgroundImageFix"/>
<feBlend mode="normal" in="SourceGraphic" in2="BackgroundImageFix" result="shape"/>
<feColorMatrix in="SourceAlpha" type="matrix" values="0 0 0 0 0 0 0 0 0 0 0 0 0 0 0 0 0 0 127 0" result="hardAlpha"/>
<feOffset dy="2"/>
<feGaussianBlur stdDeviation="0.5"/>
<feComposite in2="hardAlpha" operator="arithmetic" k2="-1" k3="1"/>
<feColorMatrix type="matrix" values="0 0 0 0 0.333333 0 0 0 0 0.466667 0 0 0 0 1 0 0 0 1 0"/>
<feBlend mode="normal" in2="shape" result="effect1_innerShadow_1131_151"/>
</filter>
<linearGradient id="paint0_linear_1131_151" x1="40.3342" y1="8.68359" x2="40.3342" y2="71.314" gradientUnits="userSpaceOnUse">
<stop stop-color="#4385DC"/>
<stop offset="1" stop-color="#1B52C8"/>
</linearGradient>
</defs>
</svg>
