<?xml version="1.0" encoding="UTF-8" standalone="no"?>
<svg
   width="43"
   height="42"
   viewBox="0 0 43 42"
   fill="none"
   version="1.1"
   id="svg4"
   sodipodi:docname="logo2.svg"
   inkscape:version="1.4 (e7c3feb100, 2024-10-09)"
   xmlns:inkscape="http://www.inkscape.org/namespaces/inkscape"
   xmlns:sodipodi="http://sodipodi.sourceforge.net/DTD/sodipodi-0.dtd"
   xmlns="http://www.w3.org/2000/svg"
   xmlns:svg="http://www.w3.org/2000/svg">
  <sodipodi:namedview
     id="namedview4"
     pagecolor="#ffffff"
     bordercolor="#000000"
     borderopacity="0.25"
     inkscape:showpageshadow="2"
     inkscape:pageopacity="0.0"
     inkscape:pagecheckerboard="0"
     inkscape:deskcolor="#d1d1d1"
     inkscape:zoom="32"
     inkscape:cx="11.578125"
     inkscape:cy="12.140625"
     inkscape:window-width="2048"
     inkscape:window-height="1080"
     inkscape:window-x="0"
     inkscape:window-y="0"
     inkscape:window-maximized="1"
     inkscape:current-layer="g2" />
  <g
     clip-path="url(#clip0_920_730)"
     id="g2">
    <g
       filter="url(#filter0_i_920_730)"
       id="g1">
      <path
         fill-rule="evenodd"
         clip-rule="evenodd"
         d="M16.0833 5.25C16.5119 5.25006 16.9256 5.40742 17.2459 5.69225C17.5662 5.97708 17.7709 6.36956 17.821 6.79525L17.8333 7V8.75H24.8333C25.2791 8.75093 25.7079 8.92204 26.0319 9.22838C26.3559 9.53471 26.5507 9.95317 26.5766 10.3983C26.6025 10.8435 26.4576 11.2817 26.1713 11.6235C25.885 11.9654 25.479 12.1851 25.0363 12.2378L24.8333 12.25H22.987C22.5968 15.806 21.034 19.2325 18.5333 22.204C19.4485 22.9985 20.4618 23.7405 21.5695 24.4195L22.245 24.8185L25.8623 16.7825C25.9926 16.4926 26.1995 16.2438 26.4606 16.0626C26.7217 15.8814 27.0272 15.7747 27.3444 15.754C27.6615 15.7333 27.9783 15.7994 28.2607 15.9451C28.5432 16.0909 28.7806 16.3108 28.9475 16.5813L29.0525 16.7825L36.9275 34.2825C37.111 34.6897 37.1319 35.1517 36.9858 35.5738C36.8397 35.9958 36.5378 36.3461 36.1419 36.5528C35.7459 36.7595 35.2859 36.807 34.8561 36.6855C34.4263 36.5641 34.0592 36.2829 33.83 35.8995L33.7373 35.7175L31.8385 31.5H23.0763L21.1793 35.7175C20.9969 36.1258 20.6652 36.4488 20.2521 36.6202C19.8391 36.7916 19.3761 36.7984 18.9583 36.6392C18.5404 36.48 18.1993 36.1668 18.0051 35.764C17.8108 35.3612 17.7782 34.8994 17.9138 34.4732L17.9873 34.2808L20.8048 28.0228C19.1144 27.0922 17.5301 25.9809 16.0798 24.7083C13.8275 26.6963 11.0958 28.3798 7.9825 29.6258C7.55156 29.7982 7.06977 29.7923 6.64312 29.6095C6.21648 29.4267 5.87993 29.0819 5.7075 28.651C5.53508 28.2201 5.54091 27.7383 5.72371 27.3116C5.90651 26.885 6.25131 26.5484 6.68225 26.376C9.407 25.2857 11.7345 23.8542 13.6333 22.2075C12.1556 20.4701 10.985 18.4934 10.1718 16.3625C10.0088 15.9278 10.0253 15.4463 10.2174 15.0237C10.4096 14.6012 10.7617 14.2723 11.1964 14.1094C11.631 13.9465 12.1126 13.9629 12.5351 14.1551C12.9577 14.3472 13.2866 14.6993 13.4495 15.134C14.0788 16.7795 14.968 18.3133 16.0833 19.677C17.814 17.5298 18.927 15.169 19.368 12.7978L19.4573 12.25H7.33325C6.88721 12.2495 6.4582 12.0787 6.13386 11.7725C5.80952 11.4663 5.61434 11.0478 5.5882 10.6026C5.56206 10.1573 5.70693 9.71884 5.99322 9.37679C6.2795 9.03475 6.68558 8.81493 7.1285 8.76225L7.33325 8.75H14.3333V7C14.3333 6.53587 14.5176 6.09075 14.8458 5.76256C15.174 5.43437 15.6191 5.25 16.0833 5.25ZM30.2635 28L27.4583 21.7648L24.6548 28H30.2635Z"
         fill="url(#paint0_linear_920_730)"
         id="path1" />
    </g>
    <path
       d="M 7.8705577,11.982952 19.4573,12 h 0.294 l -0.0473,0.2902 -0.0893,0.5478 -9e-4,0.0055 v 0 c -0.4494,2.4162 -1.5821,4.8145 -3.3359,6.9904 l -0.1932,0.2397 -0.195,-0.2383 c -1.1322,-1.3844 -2.0349,-2.9416 -2.6737,-4.612 l -6e-4,-0.0016 c -0.1396,-0.3725 -0.4216,-0.6744 -0.7837,-0.8391 -0.3622,-0.1647 -0.775,-0.1788 -1.1476,-0.0391 -0.3726,0.1396 -0.6744,0.4215 -0.8391,0.7837 -0.1646,0.362 -0.1788,0.7745 -0.0394,1.1469 0.8031,2.1041 1.959,4.0558 3.4181,5.7714 l 0.1604,0.1886 -0.187,0.1623 c -1.921,1.666 -4.27277,3.1117 -7.02197,4.2117 L 6.68225,26.376 6.77512,26.6081 c -0.36938,0.1478 -0.66493,0.4363 -0.82162,0.802 -0.15668,0.3657 -0.16168,0.7786 -0.01389,1.148 0.1478,0.3694 0.43627,0.665 0.80197,0.8216 0.3657,0.1567 0.77867,0.1617 1.14805,0.0139 3.08807,-1.2359 5.79497,-2.9047 8.02467,-4.8728 l 0.165,-0.1456 0.1653,0.1451 c 1.4368,1.2607 3.0062,2.3616 4.6807,3.2834 l 0.2021,0.1113 -0.0947,0.2104 -2.8145,6.2513 -0.0683,0.1789 c -0.1138,0.3634 -0.0851,0.7566 0.0804,1.0998 0.1665,0.3453 0.4588,0.6137 0.817,0.7502 0.3582,0.1364 0.755,0.1306 1.109,-0.0163 0.354,-0.1469 0.6384,-0.4238 0.7947,-0.7737 l 3e-4,-7e-4 1.897,-4.2175 0.0663,-0.1474 h 0.1617 8.7622 0.1616 l 0.0664,0.1474 1.8962,4.212 0.0861,0.1688 c 0.1967,0.325 0.5095,0.5634 0.8753,0.6667 0.3684,0.1041 0.7627,0.0634 1.1021,-0.1137 0.3393,-0.1772 0.5981,-0.4774 0.7233,-0.8392 0.1252,-0.3618 0.1074,-0.7578 -0.0499,-1.1068 l -10e-5,-10e-5 -7.872,-17.4934 -0.0973,-0.1865 c -0.1428,-0.2285 -0.3446,-0.4143 -0.5841,-0.5379 -0.2421,-0.1249 -0.5136,-0.1815 -0.7855,-0.1638 -0.2718,0.0177 -0.5337,0.1091 -0.7575,0.2645 -0.2238,0.1553 -0.4011,0.3686 -0.5128,0.617 l -10e-5,10e-5 -3.6172,8.036 -0.1147,0.2547 -0.2404,-0.142 -0.6755,-0.399 -0.0036,-0.0021 10e-5,-10e-5 c -1.1191,-0.6859 -2.1435,-1.4359 -3.0695,-2.2398 l -0.186,-0.1614 0.1586,-0.1884 c 2.473,-2.9385 4.0123,-6.3196 4.3965,-9.8203 L 22.7629,12 h 0.2241 1.8387 l 0.188,-0.0113 c 0.3768,-0.0466 0.722,-0.2344 0.9659,-0.5257 C 26.225,11.17 26.3493,10.7944 26.327,10.4128 26.3048,10.0313 26.1378,9.67261 25.8601,9.41004 25.5824,9.14751 25.2151,9.00086 24.8329,9 h -6.9996 -0.25 V 8.75 7.00747 L 17.5719,6.81764 C 17.5275,6.45541 17.3526,6.12168 17.0798,5.87907 16.8052,5.63494 16.4506,5.50006 16.0833,5.5 M 7.504015,11.987252 C 7.0918602,11.986814 6.58348,11.8532 6.30548,11.5907 6.02747,11.3283 5.86018,10.9696 5.83777,10.5879 5.81537,10.2062 5.93954,9.83043 6.18493,9.53725 6.4288,9.24587 6.77411,9.05798 7.15103,9.01135 m 0,0 L 10.153722,9 h 4.179578 0.25 V 8.75 7 c 0,-0.39782 0.158,-0.77936 0.4393,-1.06066 0.2813,-0.2813 0.693035,-0.4312875 1.090835,-0.4312975 M 30.2635,28.25 h 0.3866 l -0.1586,-0.3526 -2.8053,-6.2352 -0.228,-0.5069 -0.228,0.5069 -2.8035,6.2353 -0.1585,0.3525 h 0.3866 z"
       stroke="#d12329"
       stroke-width="0.5"
       id="path2"
       sodipodi:nodetypes="ccccccsscccsccccscccccccccccccccccccsccccccccccccsccccccccccccccccccccccccccccccccccccccccccccssccccccccccc" />
  </g>
  <defs
     id="defs4">
    <filter
       id="filter0_i_920_730"
       x="5.58227"
       y="5.25"
       width="31.4997"
       height="32.5039"
       filterUnits="userSpaceOnUse"
       color-interpolation-filters="sRGB">
      <feFlood
         flood-opacity="0"
         result="BackgroundImageFix"
         id="feFlood2" />
      <feBlend
         mode="normal"
         in="SourceGraphic"
         in2="BackgroundImageFix"
         result="shape"
         id="feBlend2" />
      <feColorMatrix
         in="SourceAlpha"
         type="matrix"
         values="0 0 0 0 0 0 0 0 0 0 0 0 0 0 0 0 0 0 127 0"
         result="hardAlpha"
         id="feColorMatrix2" />
      <feOffset
         dy="1"
         id="feOffset2" />
      <feGaussianBlur
         stdDeviation="0.5"
         id="feGaussianBlur2" />
      <feComposite
         in2="hardAlpha"
         operator="arithmetic"
         k2="-1"
         k3="1"
         id="feComposite2" />
      <feColorMatrix
         type="matrix"
         values="0 0 0 0 1 0 0 0 0 0.3375 0 0 0 0 0.3375 0 0 0 1 0"
         id="feColorMatrix3" />
      <feBlend
         mode="normal"
         in2="shape"
         result="effect1_innerShadow_920_730"
         id="feBlend3" />
    </filter>
    <linearGradient
       id="paint0_linear_920_730"
       x1="21.3321"
       y1="5.25"
       x2="21.3321"
       y2="36.7539"
       gradientUnits="userSpaceOnUse">
      <stop
         stop-color="#F9242C"
         id="stop3" />
      <stop
         offset="1"
         stop-color="#D12329"
         id="stop4" />
    </linearGradient>
    <clipPath
       id="clip0_920_730">
      <rect
         width="42"
         height="42"
         fill="white"
         transform="translate(0.333252)"
         id="rect4" />
    </clipPath>
  </defs>
</svg>
