<svg width="80" height="80" viewBox="0 0 80 80" fill="none" xmlns="http://www.w3.org/2000/svg">
<g filter="url(#filter0_i_1510_74)">
<path fill-rule="evenodd" clip-rule="evenodd" d="M28.9221 18.25C28.2568 19.7744 27.9145 21.4201 27.9167 23.0833C27.9167 24.3652 28.426 25.5946 29.3324 26.501C30.2388 27.4074 31.4682 27.9167 32.7501 27.9167H47.2501C48.532 27.9167 49.7613 27.4074 50.6678 26.501C51.5742 25.5946 52.0834 24.3652 52.0834 23.0833C52.0834 21.3651 51.7257 19.729 51.0781 18.25H54.5001C55.782 18.25 57.0113 18.7592 57.9178 19.6656C58.8242 20.5721 59.3334 21.8014 59.3334 23.0833V59.3333C59.3334 60.6152 58.8242 61.8446 57.9178 62.751C57.0113 63.6574 55.782 64.1667 54.5001 64.1667H25.5001C24.2182 64.1667 22.9888 63.6574 22.0824 62.751C21.176 61.8446 20.6667 60.6152 20.6667 59.3333V23.0833C20.6667 21.8014 21.176 20.5721 22.0824 19.6656C22.9888 18.7592 24.2182 18.25 25.5001 18.25H28.9221ZM40.0001 44.8333H32.7501C32.1091 44.8333 31.4945 45.0879 31.0412 45.5411C30.588 45.9944 30.3334 46.609 30.3334 47.25C30.3334 47.8909 30.588 48.5056 31.0412 48.9588C31.4945 49.412 32.1091 49.6667 32.7501 49.6667H40.0001C40.641 49.6667 41.2557 49.412 41.7089 48.9588C42.1621 48.5056 42.4167 47.8909 42.4167 47.25C42.4167 46.609 42.1621 45.9944 41.7089 45.5411C41.2557 45.0879 40.641 44.8333 40.0001 44.8333ZM47.2501 35.1667H32.7501C32.1341 35.1673 31.5417 35.4032 31.0938 35.826C30.6459 36.2489 30.3763 36.8268 30.3402 37.4417C30.3041 38.0566 30.5042 38.6621 30.8996 39.1344C31.2949 39.6068 31.8557 39.9103 32.4673 39.9831L32.7501 40H47.2501C47.891 40 48.5057 39.7454 48.9589 39.2922C49.4121 38.8389 49.6667 38.2243 49.6667 37.5833C49.6667 36.9424 49.4121 36.3277 48.9589 35.8745C48.5057 35.4213 47.891 35.1667 47.2501 35.1667ZM40.0001 15.8333C41.0203 15.8318 42.0294 16.0464 42.9607 16.4629C43.8921 16.8795 44.7247 17.4885 45.4037 18.25C46.4381 19.4052 47.1051 20.8914 47.2283 22.5323L47.2501 23.0833H32.7501C32.7501 21.3312 33.3712 19.7242 34.4055 18.4723L34.5964 18.25C35.9256 16.7662 37.8541 15.8333 40.0001 15.8333Z" fill="#09244B"/>
<path fill-rule="evenodd" clip-rule="evenodd" d="M28.9221 18.25C28.2568 19.7744 27.9145 21.4201 27.9167 23.0833C27.9167 24.3652 28.426 25.5946 29.3324 26.501C30.2388 27.4074 31.4682 27.9167 32.7501 27.9167H47.2501C48.532 27.9167 49.7613 27.4074 50.6678 26.501C51.5742 25.5946 52.0834 24.3652 52.0834 23.0833C52.0834 21.3651 51.7257 19.729 51.0781 18.25H54.5001C55.782 18.25 57.0113 18.7592 57.9178 19.6656C58.8242 20.5721 59.3334 21.8014 59.3334 23.0833V59.3333C59.3334 60.6152 58.8242 61.8446 57.9178 62.751C57.0113 63.6574 55.782 64.1667 54.5001 64.1667H25.5001C24.2182 64.1667 22.9888 63.6574 22.0824 62.751C21.176 61.8446 20.6667 60.6152 20.6667 59.3333V23.0833C20.6667 21.8014 21.176 20.5721 22.0824 19.6656C22.9888 18.7592 24.2182 18.25 25.5001 18.25H28.9221ZM40.0001 44.8333H32.7501C32.1091 44.8333 31.4945 45.0879 31.0412 45.5411C30.588 45.9944 30.3334 46.609 30.3334 47.25C30.3334 47.8909 30.588 48.5056 31.0412 48.9588C31.4945 49.412 32.1091 49.6667 32.7501 49.6667H40.0001C40.641 49.6667 41.2557 49.412 41.7089 48.9588C42.1621 48.5056 42.4167 47.8909 42.4167 47.25C42.4167 46.609 42.1621 45.9944 41.7089 45.5411C41.2557 45.0879 40.641 44.8333 40.0001 44.8333ZM47.2501 35.1667H32.7501C32.1341 35.1673 31.5417 35.4032 31.0938 35.826C30.6459 36.2489 30.3763 36.8268 30.3402 37.4417C30.3041 38.0566 30.5042 38.6621 30.8996 39.1344C31.2949 39.6068 31.8557 39.9103 32.4673 39.9831L32.7501 40H47.2501C47.891 40 48.5057 39.7454 48.9589 39.2922C49.4121 38.8389 49.6667 38.2243 49.6667 37.5833C49.6667 36.9424 49.4121 36.3277 48.9589 35.8745C48.5057 35.4213 47.891 35.1667 47.2501 35.1667ZM40.0001 15.8333C41.0203 15.8318 42.0294 16.0464 42.9607 16.4629C43.8921 16.8795 44.7247 17.4885 45.4037 18.25C46.4381 19.4052 47.1051 20.8914 47.2283 22.5323L47.2501 23.0833H32.7501C32.7501 21.3312 33.3712 19.7242 34.4055 18.4723L34.5964 18.25C35.9256 16.7662 37.8541 15.8333 40.0001 15.8333Z" fill="url(#paint0_linear_1510_74)"/>
</g>
<path d="M27.4167 23.0837C27.4168 24.498 27.9787 25.8544 28.9788 26.8546C29.979 27.8548 31.3356 28.4167 32.7501 28.4167H47.2501C48.6646 28.4167 50.0211 27.8548 51.0213 26.8546C52.0215 25.8544 52.5834 24.4978 52.5834 23.0833C52.5834 21.562 52.3139 20.1013 51.8178 18.75H54.5001C55.6493 18.75 56.7515 19.2065 57.5642 20.0192C58.3769 20.8318 58.8334 21.934 58.8334 23.0833V59.3333C58.8334 60.4826 58.3769 61.5848 57.5642 62.3975C56.7515 63.2101 55.6494 63.6667 54.5001 63.6667H25.5001C24.3508 63.6667 23.2486 63.2101 22.436 62.3975C21.6233 61.5848 21.1667 60.4826 21.1667 59.3333V23.0833C21.1667 21.934 21.6233 20.8318 22.436 20.0192C23.2486 19.2065 24.3508 18.75 25.5001 18.75H28.1831C27.6749 20.1362 27.4148 21.6033 27.4167 23.0837ZM27.4167 23.0837C27.4167 23.0835 27.4167 23.0834 27.4167 23.0833H27.9167L27.4167 23.084C27.4167 23.0839 27.4167 23.0838 27.4167 23.0837ZM32.7501 34.6667H32.7495C32.0061 34.6675 31.2911 34.9521 30.7505 35.4625C30.21 35.9728 29.8847 36.6703 29.8411 37.4124C29.7975 38.1545 30.039 38.8853 30.5161 39.4553C30.9933 40.0254 31.6701 40.3918 32.4083 40.4796L32.4228 40.4813L32.4375 40.4822L32.7202 40.4991L32.7351 40.5H32.7501H47.2501C48.0236 40.5 48.7655 40.1927 49.3125 39.6457C49.8595 39.0987 50.1667 38.3569 50.1667 37.5833C50.1667 36.8098 49.8595 36.0679 49.3125 35.5209C48.7655 34.9739 48.0236 34.6667 47.2501 34.6667H32.7501ZM40.0001 16.3333L40.0008 16.3333C40.9505 16.3319 41.8897 16.5316 42.7566 16.9194C43.6235 17.3071 44.3985 17.874 45.0306 18.5828L45.0312 18.5835C45.9927 19.6572 46.6127 21.0371 46.7291 22.5611L46.73 22.5833H33.2683C33.3732 21.1484 33.926 19.839 34.788 18.7944L34.9723 18.5798C36.2106 17.1995 38.0041 16.3333 40.0001 16.3333ZM40.0001 44.3333H32.7501C31.9765 44.3333 31.2347 44.6406 30.6877 45.1876C30.1407 45.7346 29.8334 46.4764 29.8334 47.25C29.8334 48.0235 30.1407 48.7654 30.6877 49.3124C31.2347 49.8594 31.9765 50.1667 32.7501 50.1667H40.0001C40.7736 50.1667 41.5155 49.8594 42.0625 49.3124C42.6095 48.7654 42.9167 48.0235 42.9167 47.25C42.9167 46.4764 42.6095 45.7346 42.0625 45.1876C41.5155 44.6406 40.7736 44.3333 40.0001 44.3333Z" stroke="url(#paint1_linear_1510_74)"/>
<path d="M27.4167 23.0837C27.4168 24.498 27.9787 25.8544 28.9788 26.8546C29.979 27.8548 31.3356 28.4167 32.7501 28.4167H47.2501C48.6646 28.4167 50.0211 27.8548 51.0213 26.8546C52.0215 25.8544 52.5834 24.4978 52.5834 23.0833C52.5834 21.562 52.3139 20.1013 51.8178 18.75H54.5001C55.6493 18.75 56.7515 19.2065 57.5642 20.0192C58.3769 20.8318 58.8334 21.934 58.8334 23.0833V59.3333C58.8334 60.4826 58.3769 61.5848 57.5642 62.3975C56.7515 63.2101 55.6494 63.6667 54.5001 63.6667H25.5001C24.3508 63.6667 23.2486 63.2101 22.436 62.3975C21.6233 61.5848 21.1667 60.4826 21.1667 59.3333V23.0833C21.1667 21.934 21.6233 20.8318 22.436 20.0192C23.2486 19.2065 24.3508 18.75 25.5001 18.75H28.1831C27.6749 20.1362 27.4148 21.6033 27.4167 23.0837ZM27.4167 23.0837C27.4167 23.0835 27.4167 23.0834 27.4167 23.0833H27.9167L27.4167 23.084C27.4167 23.0839 27.4167 23.0838 27.4167 23.0837ZM32.7501 34.6667H32.7495C32.0061 34.6675 31.2911 34.9521 30.7505 35.4625C30.21 35.9728 29.8847 36.6703 29.8411 37.4124C29.7975 38.1545 30.039 38.8853 30.5161 39.4553C30.9933 40.0254 31.6701 40.3918 32.4083 40.4796L32.4228 40.4813L32.4375 40.4822L32.7202 40.4991L32.7351 40.5H32.7501H47.2501C48.0236 40.5 48.7655 40.1927 49.3125 39.6457C49.8595 39.0987 50.1667 38.3569 50.1667 37.5833C50.1667 36.8098 49.8595 36.0679 49.3125 35.5209C48.7655 34.9739 48.0236 34.6667 47.2501 34.6667H32.7501ZM40.0001 16.3333L40.0008 16.3333C40.9505 16.3319 41.8897 16.5316 42.7566 16.9194C43.6235 17.3071 44.3985 17.874 45.0306 18.5828L45.0312 18.5835C45.9927 19.6572 46.6127 21.0371 46.7291 22.5611L46.73 22.5833H33.2683C33.3732 21.1484 33.926 19.839 34.788 18.7944L34.9723 18.5798C36.2106 17.1995 38.0041 16.3333 40.0001 16.3333ZM40.0001 44.3333H32.7501C31.9765 44.3333 31.2347 44.6406 30.6877 45.1876C30.1407 45.7346 29.8334 46.4764 29.8334 47.25C29.8334 48.0235 30.1407 48.7654 30.6877 49.3124C31.2347 49.8594 31.9765 50.1667 32.7501 50.1667H40.0001C40.7736 50.1667 41.5155 49.8594 42.0625 49.3124C42.6095 48.7654 42.9167 48.0235 42.9167 47.25C42.9167 46.4764 42.6095 45.7346 42.0625 45.1876C41.5155 44.6406 40.7736 44.3333 40.0001 44.3333Z" stroke="url(#paint2_linear_1510_74)" stroke-opacity="0.2"/>
<defs>
<filter id="filter0_i_1510_74" x="20.6667" y="15.8333" width="38.6667" height="49.3333" filterUnits="userSpaceOnUse" color-interpolation-filters="sRGB">
<feFlood flood-opacity="0" result="BackgroundImageFix"/>
<feBlend mode="normal" in="SourceGraphic" in2="BackgroundImageFix" result="shape"/>
<feColorMatrix in="SourceAlpha" type="matrix" values="0 0 0 0 0 0 0 0 0 0 0 0 0 0 0 0 0 0 127 0" result="hardAlpha"/>
<feOffset dy="2"/>
<feGaussianBlur stdDeviation="0.5"/>
<feComposite in2="hardAlpha" operator="arithmetic" k2="-1" k3="1"/>
<feColorMatrix type="matrix" values="0 0 0 0 1 0 0 0 0 0.541667 0 0 0 0 0.541667 0 0 0 0.5 0"/>
<feBlend mode="normal" in2="shape" result="effect1_innerShadow_1510_74"/>
</filter>
<linearGradient id="paint0_linear_1510_74" x1="40.0001" y1="15.8333" x2="40.0001" y2="64.1667" gradientUnits="userSpaceOnUse">
<stop stop-color="#F9242C"/>
<stop offset="1" stop-color="#D12329"/>
</linearGradient>
<linearGradient id="paint1_linear_1510_74" x1="40.0001" y1="15.8333" x2="40.0001" y2="64.1667" gradientUnits="userSpaceOnUse">
<stop stop-color="#F9242C"/>
<stop offset="1" stop-color="#D12329"/>
</linearGradient>
<linearGradient id="paint2_linear_1510_74" x1="40.0001" y1="15.8333" x2="40.0001" y2="64.1667" gradientUnits="userSpaceOnUse">
<stop stop-opacity="0.1"/>
<stop offset="1"/>
</linearGradient>
</defs>
</svg>
