<svg width="80" height="80" viewBox="0 0 80 80" fill="none" xmlns="http://www.w3.org/2000/svg">
<g clip-path="url(#clip0_1510_69)">
<g filter="url(#filter0_i_1510_69)">
<path d="M40 16.6667C52.2633 16.6667 67.2066 24.7233 72.4333 36.3367C72.92 37.43 73.3333 38.7033 73.3333 40C73.3333 41.2933 72.9233 42.57 72.4333 43.6633C67.2033 55.2767 52.26 63.3333 40 63.3333C27.7366 63.3333 12.7933 55.2767 7.56663 43.6633C7.07996 42.5667 6.66663 41.2967 6.66663 40C6.66663 38.7067 7.07663 37.43 7.56663 36.3367C12.7966 24.7233 27.74 16.6667 40 16.6667ZM40 26.6667C36.4637 26.6667 33.0724 28.0714 30.5719 30.5719C28.0714 33.0724 26.6666 36.4638 26.6666 40C26.6666 43.5362 28.0714 46.9276 30.5719 49.4281C33.0724 51.9286 36.4637 53.3333 40 53.3333C43.5362 53.3333 46.9276 51.9286 49.4281 49.4281C51.9285 46.9276 53.3333 43.5362 53.3333 40C53.3333 36.4638 51.9285 33.0724 49.4281 30.5719C46.9276 28.0714 43.5362 26.6667 40 26.6667ZM40 33.3333C41.7681 33.3333 43.4638 34.0357 44.714 35.2859C45.9642 36.5362 46.6666 38.2319 46.6666 40C46.6666 41.7681 45.9642 43.4638 44.714 44.714C43.4638 45.9643 41.7681 46.6667 40 46.6667C38.2318 46.6667 36.5362 45.9643 35.2859 44.714C34.0357 43.4638 33.3333 41.7681 33.3333 40C33.3333 38.2319 34.0357 36.5362 35.2859 35.2859C36.5362 34.0357 38.2318 33.3333 40 33.3333Z" fill="url(#paint0_linear_1510_69)"/>
</g>
<path d="M40 17.1667C46.0299 17.1667 52.7454 19.1502 58.6028 22.5782C64.4605 26.0063 69.4164 30.853 71.9765 36.54C72.4504 37.6046 72.8333 38.8038 72.8333 40C72.8333 41.1935 72.4533 42.3962 71.977 43.4588C69.4154 49.1463 64.4584 53.9934 58.6003 57.4218C52.7428 60.8498 46.0282 62.8333 40 62.8333C33.97 62.8333 27.2546 60.8498 21.3971 57.4218C15.5392 53.9935 10.5831 49.1466 8.02314 43.4594C7.54914 42.391 7.16663 41.1956 7.16663 40C7.16663 38.8065 7.54662 37.6039 8.02283 36.5413C10.5844 30.8537 15.5415 26.0066 21.3996 22.5782C27.2571 19.1502 33.9717 17.1667 40 17.1667ZM40 26.1667C36.3311 26.1667 32.8126 27.6241 30.2183 30.2183C27.6241 32.8126 26.1666 36.3312 26.1666 40C26.1666 43.6688 27.6241 47.1874 30.2183 49.7816C32.8126 52.3759 36.3311 53.8333 40 53.8333C43.6688 53.8333 47.1873 52.3759 49.7816 49.7816C52.3759 47.1874 53.8333 43.6688 53.8333 40C53.8333 36.3312 52.3759 32.8126 49.7816 30.2183C47.1873 27.6241 43.6688 26.1667 40 26.1667ZM40 33.8333C41.6355 33.8333 43.204 34.483 44.3604 35.6395C45.5169 36.796 46.1666 38.3645 46.1666 40C46.1666 41.6355 45.5169 43.204 44.3604 44.3605C43.204 45.517 41.6355 46.1667 40 46.1667C38.3645 46.1667 36.7959 45.517 35.6395 44.3605C34.483 43.204 33.8333 41.6355 33.8333 40C33.8333 38.3645 34.483 36.796 35.6395 35.6395C36.7959 34.483 38.3645 33.8333 40 33.8333Z" stroke="#EF7E30"/>
</g>
<defs>
<filter id="filter0_i_1510_69" x="6.66663" y="16.6667" width="66.6666" height="47.6667" filterUnits="userSpaceOnUse" color-interpolation-filters="sRGB">
<feFlood flood-opacity="0" result="BackgroundImageFix"/>
<feBlend mode="normal" in="SourceGraphic" in2="BackgroundImageFix" result="shape"/>
<feColorMatrix in="SourceAlpha" type="matrix" values="0 0 0 0 0 0 0 0 0 0 0 0 0 0 0 0 0 0 127 0" result="hardAlpha"/>
<feOffset dy="1"/>
<feGaussianBlur stdDeviation="0.5"/>
<feComposite in2="hardAlpha" operator="arithmetic" k2="-1" k3="1"/>
<feColorMatrix type="matrix" values="0 0 0 0 1 0 0 0 0 0.688889 0 0 0 0 0.333333 0 0 0 1 0"/>
<feBlend mode="normal" in2="shape" result="effect1_innerShadow_1510_69"/>
</filter>
<linearGradient id="paint0_linear_1510_69" x1="40" y1="16.6667" x2="40" y2="63.3333" gradientUnits="userSpaceOnUse">
<stop stop-color="#FF9953"/>
<stop offset="1" stop-color="#EF7E30"/>
</linearGradient>
<clipPath id="clip0_1510_69">
<rect width="80" height="80" fill="white"/>
</clipPath>
</defs>
</svg>
