<?xml version="1.0" encoding="UTF-8" standalone="no"?>
<svg
   width="43"
   height="42"
   viewBox="0 0 43 42"
   fill="none"
   version="1.1"
   id="svg6"
   sodipodi:docname="logo3.svg"
   inkscape:version="1.4 (e7c3feb100, 2024-10-09)"
   xmlns:inkscape="http://www.inkscape.org/namespaces/inkscape"
   xmlns:sodipodi="http://sodipodi.sourceforge.net/DTD/sodipodi-0.dtd"
   xmlns="http://www.w3.org/2000/svg"
   xmlns:svg="http://www.w3.org/2000/svg">
  <sodipodi:namedview
     id="namedview6"
     pagecolor="#ffffff"
     bordercolor="#000000"
     borderopacity="0.25"
     inkscape:showpageshadow="2"
     inkscape:pageopacity="0.0"
     inkscape:pagecheckerboard="0"
     inkscape:deskcolor="#d1d1d1"
     inkscape:zoom="22.627417"
     inkscape:cx="22.472737"
     inkscape:cy="20.130446"
     inkscape:window-width="2048"
     inkscape:window-height="1080"
     inkscape:window-x="0"
     inkscape:window-y="0"
     inkscape:window-maximized="1"
     inkscape:current-layer="g4" />
  <g
     clip-path="url(#clip0_943_2)"
     id="g4">
    <g
       filter="url(#filter0_i_943_2)"
       id="g3">
      <path
         fill-rule="evenodd"
         clip-rule="evenodd"
         d="M16.4165 24.5C16.4152 25.8666 16.9468 27.1798 17.8984 28.1607C18.8499 29.1415 20.1464 29.7127 21.5124 29.7528C22.8784 29.7929 24.2062 29.2988 25.2137 28.3754C26.2212 27.4521 26.8289 26.1723 26.9078 24.808L26.9165 24.5H39.1665V33.25C39.1668 34.133 38.8333 34.9835 38.2329 35.631C37.6325 36.2784 36.8095 36.675 35.929 36.7413L35.6665 36.75H7.6665C6.7835 36.7503 5.93301 36.4168 5.28554 35.8164C4.63808 35.216 4.24148 34.393 4.17525 33.5125L4.1665 33.25V24.5H16.4165ZM21.6665 21C22.1306 21 22.5758 21.1844 22.9039 21.5126C23.2321 21.8408 23.4165 22.2859 23.4165 22.75V24.5C23.4165 24.9641 23.2321 25.4092 22.9039 25.7374C22.5758 26.0656 22.1306 26.25 21.6665 26.25C21.2024 26.25 20.7573 26.0656 20.4291 25.7374C20.1009 25.4092 19.9165 24.9641 19.9165 24.5V22.75C19.9165 22.2859 20.1009 21.8408 20.4291 21.5126C20.7573 21.1844 21.2024 21 21.6665 21ZM21.6665 5.25C23.6835 5.25025 25.6385 5.94702 27.2009 7.2225C28.7634 8.49799 29.8375 10.2739 30.2415 12.25H35.6665C36.5948 12.25 37.485 12.6187 38.1414 13.2751C38.7978 13.9315 39.1665 14.8217 39.1665 15.75V21H26.619C26.2575 19.9753 25.587 19.088 24.7 18.4604C23.8129 17.8328 22.7531 17.4957 21.6665 17.4957C20.5799 17.4957 19.5201 17.8328 18.6331 18.4604C17.746 19.088 17.0756 19.9753 16.714 21H4.1665V15.75C4.1665 14.8217 4.53525 13.9315 5.19163 13.2751C5.84801 12.6187 6.73825 12.25 7.6665 12.25H13.0915C13.4955 10.2739 14.5696 8.49799 16.1321 7.2225C17.6945 5.94702 19.6495 5.25025 21.6665 5.25ZM21.6665 8.75C20.6358 8.74986 19.6278 9.05313 18.7683 9.62201C17.9087 10.1909 17.2357 11.0002 16.833 11.949L16.714 12.25H26.6155C26.2534 11.2267 25.5832 10.3407 24.6969 9.71393C23.8107 9.08716 22.752 8.75041 21.6665 8.75Z"
         fill="#09244B"
         id="path1" />
      <path
         fill-rule="evenodd"
         clip-rule="evenodd"
         d="M16.4165 24.5C16.4152 25.8666 16.9468 27.1798 17.8984 28.1607C18.8499 29.1415 20.1464 29.7127 21.5124 29.7528C22.8784 29.7929 24.2062 29.2988 25.2137 28.3754C26.2212 27.4521 26.8289 26.1723 26.9078 24.808L26.9165 24.5H39.1665V33.25C39.1668 34.133 38.8333 34.9835 38.2329 35.631C37.6325 36.2784 36.8095 36.675 35.929 36.7413L35.6665 36.75H7.6665C6.7835 36.7503 5.93301 36.4168 5.28554 35.8164C4.63808 35.216 4.24148 34.393 4.17525 33.5125L4.1665 33.25V24.5H16.4165ZM21.6665 21C22.1306 21 22.5758 21.1844 22.9039 21.5126C23.2321 21.8408 23.4165 22.2859 23.4165 22.75V24.5C23.4165 24.9641 23.2321 25.4092 22.9039 25.7374C22.5758 26.0656 22.1306 26.25 21.6665 26.25C21.2024 26.25 20.7573 26.0656 20.4291 25.7374C20.1009 25.4092 19.9165 24.9641 19.9165 24.5V22.75C19.9165 22.2859 20.1009 21.8408 20.4291 21.5126C20.7573 21.1844 21.2024 21 21.6665 21ZM21.6665 5.25C23.6835 5.25025 25.6385 5.94702 27.2009 7.2225C28.7634 8.49799 29.8375 10.2739 30.2415 12.25H35.6665C36.5948 12.25 37.485 12.6187 38.1414 13.2751C38.7978 13.9315 39.1665 14.8217 39.1665 15.75V21H26.619C26.2575 19.9753 25.587 19.088 24.7 18.4604C23.8129 17.8328 22.7531 17.4957 21.6665 17.4957C20.5799 17.4957 19.5201 17.8328 18.6331 18.4604C17.746 19.088 17.0756 19.9753 16.714 21H4.1665V15.75C4.1665 14.8217 4.53525 13.9315 5.19163 13.2751C5.84801 12.6187 6.73825 12.25 7.6665 12.25H13.0915C13.4955 10.2739 14.5696 8.49799 16.1321 7.2225C17.6945 5.94702 19.6495 5.25025 21.6665 5.25ZM21.6665 8.75C20.6358 8.74986 19.6278 9.05313 18.7683 9.62201C17.9087 10.1909 17.2357 11.0002 16.833 11.949L16.714 12.25H26.6155C26.2534 11.2267 25.5832 10.3407 24.6969 9.71393C23.8107 9.08716 22.752 8.75041 21.6665 8.75Z"
         fill="#1B52C8"
         id="path2" />
      <path
         fill-rule="evenodd"
         clip-rule="evenodd"
         d="m 16.4165,24.5 c -0.0013,1.3666 0.5303,2.6798 1.4819,3.6607 0.9515,0.9808 2.248,1.552 3.614,1.5921 1.366,0.0401 2.6938,-0.454 3.7013,-1.3774 1.0075,-0.9233 1.6152,-2.2031 1.6941,-3.5674 L 26.9165,24.5 h 12.25 v 8.75 c 3e-4,0.883 -0.3332,1.7335 -0.9336,2.381 -0.6004,0.6474 -1.4234,1.044 -2.3039,1.1103 L 35.6665,36.75 h -28 C 6.7835,36.7503 5.93301,36.4168 5.28554,35.8164 4.63808,35.216 4.24148,34.393 4.17525,33.5125 L 4.1665,33.25 V 24.5 Z m 5.25,-3.5 c 0.4641,0 0.9093,0.1844 1.2374,0.5126 0.3282,0.3282 0.5126,0.7733 0.5126,1.2374 v 1.75 c 0,0.4641 -0.1844,0.9092 -0.5126,1.2374 -0.3281,0.3282 -0.7733,0.5126 -1.2374,0.5126 -0.4641,0 -0.9092,-0.1844 -1.2374,-0.5126 C 20.1009,25.4092 19.9165,24.9641 19.9165,24.5 v -1.75 c 0,-0.4641 0.1844,-0.9092 0.5126,-1.2374 C 20.7573,21.1844 21.2024,21 21.6665,21 Z m 0,-15.75 c 2.017,2.5e-4 3.972,0.69702 5.5344,1.9725 1.5625,1.27549 2.6366,3.0514 3.0406,5.0275 h 5.425 c 0.9283,0 1.8185,0.3687 2.4749,1.0251 0.6564,0.6564 1.0251,1.5466 1.0251,2.4749 V 21 H 26.619 c -0.3615,-1.0247 -1.032,-1.912 -1.919,-2.5396 -0.8871,-0.6276 -1.9469,-0.9647 -3.0335,-0.9647 -1.0866,0 -2.1464,0.3371 -3.0334,0.9647 C 17.746,19.088 17.0756,19.9753 16.714,21 H 4.1665 v -5.25 c 0,-0.9283 0.36875,-1.8185 1.02513,-2.4749 C 5.84801,12.6187 6.73825,12.25 7.6665,12.25 h 5.425 c 0.404,-1.9761 1.4781,-3.75201 3.0406,-5.0275 1.5624,-1.27548 3.5174,-1.97225 5.5344,-1.9725 z m 0,3.5 C 20.6358,8.74986 19.6278,9.05313 18.7683,9.62201 17.9087,10.1909 17.2357,11.0002 16.833,11.949 l -0.119,0.301 h 9.9015 C 26.2534,11.2267 25.5832,10.3407 24.6969,9.71393 23.8107,9.08716 22.752,8.75041 21.6665,8.75 Z"
         fill="url(#paint0_linear_943_2)"
         fill-opacity="0.5"
         id="path3"
         sodipodi:nodetypes="csscccccccccsccccscsscsssssscccssscccscccssscccccccccc" />
    </g>
    <path
       d="M 4.4165,33.2458 V 24.75 H 16.172 c 0.0597,1.341 0.6083,2.6172 1.5469,3.5848 0.9969,1.0275 2.3552,1.6259 3.7862,1.6679 1.431,0.042 2.8221,-0.4756 3.8775,-1.443 1.0555,-0.9673 1.6921,-2.308 1.7747,-3.7373 h 10e-5 l 3e-4,-0.0073 0.0018,-0.0651 h 11.757 v 8.5 1e-4 c 3e-4,0.8199 -0.3094,1.6097 -0.8669,2.2109 -0.5564,0.5999 -1.3186,0.9679 -2.1343,1.0306 L 35.6624,36.5 H 7.6665 7.66642 C 6.84649,36.5003 6.05675,36.1906 5.45553,35.6331 4.85557,35.0767 4.48758,34.3146 4.42494,33.4989 Z M 21.6666,8.5 h -10e-5 c -1.0798,-1.5e-4 -2.1357,0.31757 -3.0362,0.91353 -0.9005,0.59597 -1.6056,1.44377 -2.0274,2.43777 h -1e-4 l -0.0023,0.0058 -0.119,0.301 -0.1352,0.3419 h 0.3677 9.9015 0.3536 L 26.8512,12.1666 C 26.4719,11.0946 25.7697,10.1664 24.8413,9.50982 23.9128,8.85321 22.8038,8.50043 21.6666,8.5 Z m -10e-5,12.75 c 0.3978,0 0.7794,0.158 1.0607,0.4393 0.2813,0.2813 0.4393,0.6629 0.4393,1.0607 v 1.75 c 0,0.3978 -0.158,0.7794 -0.4393,1.0607 C 22.4459,25.842 22.0643,26 21.6665,26 21.2687,26 20.8871,25.842 20.6058,25.5607 20.3245,25.2794 20.1665,24.8978 20.1665,24.5 v -1.75 c 0,-0.3978 0.158,-0.7794 0.4393,-1.0607 C 20.8871,21.408 21.2687,21.25 21.6665,21.25 Z M 4.4466198,20.716854 16.559271,20.75 c -0.07573,-2.07e-4 1.048629,-1.8705 1.929429,-2.4937 0.9292,-0.6575 2.0395,-1.0106 3.1778,-1.0106 1.1383,0 2.2486,0.3531 3.1779,1.0106 0.8807,0.6232 1.5577,1.4908 1.9484,2.4937 h 12.1237 v -5 c 0,-0.862 -0.3424,-1.6886 -0.9519,-2.2981 C 37.3551,12.8424 36.5285,12.5 35.6665,12.5 h -5.425 c -0.715441,0 -0.331713,-7.1066757 -8.586152,-7.0711644 -6.790909,0.029215 -8.51863,6.8350474 -8.51863,6.8350474 l -5.6237084,0.254121 c -2.13686,0.230103 -2.7612803,1.420485 -3.0604466,2.817378 z"
       stroke="#1b52c8"
       stroke-width="0.5"
       id="path4"
       sodipodi:nodetypes="cssscccscccccccscccccccsccccscccsscscccccccccssssssssssssscccs" />
  </g>
  <defs
     id="defs6">
    <filter
       id="filter0_i_943_2"
       x="4.1665"
       y="5.25"
       width="35"
       height="32.5"
       filterUnits="userSpaceOnUse"
       color-interpolation-filters="sRGB">
      <feFlood
         flood-opacity="0"
         result="BackgroundImageFix"
         id="feFlood4" />
      <feBlend
         mode="normal"
         in="SourceGraphic"
         in2="BackgroundImageFix"
         result="shape"
         id="feBlend4" />
      <feColorMatrix
         in="SourceAlpha"
         type="matrix"
         values="0 0 0 0 0 0 0 0 0 0 0 0 0 0 0 0 0 0 127 0"
         result="hardAlpha"
         id="feColorMatrix4" />
      <feOffset
         dy="1"
         id="feOffset4" />
      <feGaussianBlur
         stdDeviation="0.5"
         id="feGaussianBlur4" />
      <feComposite
         in2="hardAlpha"
         operator="arithmetic"
         k2="-1"
         k3="1"
         id="feComposite4" />
      <feColorMatrix
         type="matrix"
         values="0 0 0 0 0.333333 0 0 0 0 0.466667 0 0 0 0 1 0 0 0 1 0"
         id="feColorMatrix5" />
      <feBlend
         mode="normal"
         in2="shape"
         result="effect1_innerShadow_943_2"
         id="feBlend5" />
    </filter>
    <linearGradient
       id="paint0_linear_943_2"
       x1="21.6665"
       y1="5.25"
       x2="21.6665"
       y2="36.75"
       gradientUnits="userSpaceOnUse">
      <stop
         stop-color="#4385DC"
         id="stop5" />
      <stop
         offset="1"
         stop-color="#1B52C8"
         id="stop6" />
    </linearGradient>
    <clipPath
       id="clip0_943_2">
      <rect
         width="42"
         height="42"
         fill="white"
         transform="translate(0.666504)"
         id="rect6" />
    </clipPath>
  </defs>
</svg>
