<?xml version="1.0" encoding="UTF-8" standalone="no"?>
<svg
   width="42"
   height="42"
   viewBox="0 0 42 42"
   fill="none"
   version="1.1"
   id="svg4"
   sodipodi:docname="moon_fill.svg"
   inkscape:version="1.4 (e7c3feb100, 2024-10-09)"
   xmlns:inkscape="http://www.inkscape.org/namespaces/inkscape"
   xmlns:sodipodi="http://sodipodi.sourceforge.net/DTD/sodipodi-0.dtd"
   xmlns="http://www.w3.org/2000/svg"
   xmlns:svg="http://www.w3.org/2000/svg">
  <sodipodi:namedview
     id="namedview4"
     pagecolor="#ffffff"
     bordercolor="#000000"
     borderopacity="0.25"
     inkscape:showpageshadow="2"
     inkscape:pageopacity="0.0"
     inkscape:pagecheckerboard="0"
     inkscape:deskcolor="#d1d1d1"
     inkscape:zoom="20.738095"
     inkscape:cx="21"
     inkscape:cy="21"
     inkscape:window-width="2048"
     inkscape:window-height="1080"
     inkscape:window-x="0"
     inkscape:window-y="0"
     inkscape:window-maximized="1"
     inkscape:current-layer="svg4" />
  <g
     filter="url(#filter0_i_920_709)"
     id="g1">
    <path
       fill-rule="evenodd"
       clip-rule="evenodd"
       d="M18.2455 5.4915C18.5618 5.43571 18.8873 5.46714 19.187 5.58242C19.4868 5.6977 19.7494 5.89248 19.9468 6.14582C20.1442 6.39916 20.2688 6.70149 20.3073 7.02033C20.3458 7.33917 20.2967 7.66247 20.1652 7.9555C19.2933 9.89781 19.0324 12.0593 19.4172 14.1533C19.802 16.2473 20.8142 18.1748 22.3197 19.6803C23.8251 21.1858 25.7527 22.198 27.8467 22.5828C29.9407 22.9676 32.1022 22.7067 34.0445 21.8347C34.3376 21.7029 34.6611 21.6534 34.9802 21.6917C35.2993 21.7299 35.602 21.8545 35.8556 22.0519C36.1092 22.2494 36.3042 22.5123 36.4195 22.8122C36.5349 23.1122 36.5662 23.438 36.5102 23.7545C35.8253 27.6353 33.7104 31.1183 30.583 33.516C27.4557 35.9138 23.5431 37.052 19.6175 36.7061C15.692 36.3602 12.0387 34.5553 9.37884 31.6476C6.71897 28.7399 5.24575 24.9408 5.24999 21C5.25004 17.3004 6.55228 13.7189 8.92842 10.8833C11.3046 8.04765 14.603 6.13885 18.2455 5.4915Z"
       fill="url(#paint0_linear_920_709)"
       id="path1" />
  </g>
  <path
     d="M34.1471 22.0627L34.1469 22.0628C32.1583 22.9555 29.9454 23.2226 27.8015 22.8287C25.6577 22.4347 23.6842 21.3984 22.1429 19.8571C20.6016 18.3158 19.5652 16.3423 19.1713 14.1985C18.7774 12.0547 19.0445 9.84173 19.9371 7.85318C20.05 7.6016 20.0921 7.32403 20.0591 7.05029C20.0261 6.77654 19.9191 6.51698 19.7496 6.29947C19.5801 6.08196 19.3546 5.91474 19.0973 5.81576C18.84 5.71681 18.5606 5.68981 18.2891 5.73766C14.7045 6.37476 11.4584 8.25325 9.12004 11.0438C6.78161 13.8345 5.50004 17.3591 5.49999 21V21.0003C5.49582 24.8785 6.94565 28.6173 9.5633 31.4789C12.181 34.3404 15.7762 36.1167 19.6395 36.4571C23.5027 36.7975 27.3532 35.6773 30.4309 33.3176C33.5086 30.9579 35.59 27.5302 36.264 23.711L36.2641 23.7109C36.3121 23.4392 36.2852 23.1595 36.1862 22.902C36.0871 22.6444 35.9197 22.4187 35.702 22.2492C35.4843 22.0797 35.2244 21.9727 34.9505 21.9399C34.6765 21.907 34.3987 21.9495 34.1471 22.0627Z"
     stroke="#EF7E30"
     stroke-width="0.5"
     id="path2" />
  <defs
     id="defs4">
    <filter
       id="filter0_i_920_709"
       x="5.24997"
       y="5.46462"
       width="31.2873"
       height="32.3023"
       filterUnits="userSpaceOnUse"
       color-interpolation-filters="sRGB">
      <feFlood
         flood-opacity="0"
         result="BackgroundImageFix"
         id="feFlood2" />
      <feBlend
         mode="normal"
         in="SourceGraphic"
         in2="BackgroundImageFix"
         result="shape"
         id="feBlend2" />
      <feColorMatrix
         in="SourceAlpha"
         type="matrix"
         values="0 0 0 0 0 0 0 0 0 0 0 0 0 0 0 0 0 0 127 0"
         result="hardAlpha"
         id="feColorMatrix2" />
      <feOffset
         dy="1"
         id="feOffset2" />
      <feGaussianBlur
         stdDeviation="0.5"
         id="feGaussianBlur2" />
      <feComposite
         in2="hardAlpha"
         operator="arithmetic"
         k2="-1"
         k3="1"
         id="feComposite2" />
      <feColorMatrix
         type="matrix"
         values="0 0 0 0 1 0 0 0 0 0.688889 0 0 0 0 0.333333 0 0 0 1 0"
         id="feColorMatrix3" />
      <feBlend
         mode="normal"
         in2="shape"
         result="effect1_innerShadow_920_709"
         id="feBlend3" />
    </filter>
    <linearGradient
       id="paint0_linear_920_709"
       x1="20.8936"
       y1="5.46462"
       x2="20.8936"
       y2="36.7669"
       gradientUnits="userSpaceOnUse">
      <stop
         stop-color="#FF9953"
         id="stop3" />
      <stop
         offset="1"
         stop-color="#EF7E30"
         id="stop4" />
    </linearGradient>
    <clipPath
       id="clip1_920_708">
      <rect
         width="17.230801"
         height="19.3846"
         fill="#ffffff"
         transform="translate(20.4615,2.15385)"
         id="rect12"
         x="0"
         y="0" />
    </clipPath>
    <filter
       id="filter1_i_920_708"
       x="22.978201"
       y="4.3860502"
       width="12.6972"
       height="14.6778"
       filterUnits="userSpaceOnUse"
       color-interpolation-filters="sRGB">
      <feFlood
         flood-opacity="0"
         result="BackgroundImageFix"
         id="feFlood6" />
      <feBlend
         mode="normal"
         in="SourceGraphic"
         in2="BackgroundImageFix"
         result="shape"
         id="feBlend7" />
      <feColorMatrix
         in="SourceAlpha"
         type="matrix"
         values="0 0 0 0 0 0 0 0 0 0 0 0 0 0 0 0 0 0 127 0"
         result="hardAlpha"
         id="feColorMatrix7" />
      <feOffset
         dy="1"
         id="feOffset7" />
      <feGaussianBlur
         stdDeviation="0.5"
         id="feGaussianBlur7" />
      <feComposite
         in2="hardAlpha"
         operator="arithmetic"
         k2="-1"
         k3="1"
         id="feComposite7"
         k1="0"
         k4="0" />
      <feColorMatrix
         type="matrix"
         values="0 0 0 0 1 0 0 0 0 0.688889 0 0 0 0 0.333333 0 0 0 1 0"
         id="feColorMatrix8" />
      <feBlend
         mode="normal"
         in2="shape"
         result="effect1_innerShadow_920_708"
         id="feBlend8" />
    </filter>
    <linearGradient
       id="paint1_linear_920_708"
       x1="29.326799"
       y1="4.3860502"
       x2="29.326799"
       y2="18.0639"
       gradientUnits="userSpaceOnUse">
      <stop
         stop-color="#FF9953"
         id="stop10" />
      <stop
         offset="1"
         stop-color="#EF7E30"
         id="stop11" />
    </linearGradient>
  </defs>
  <g
     clip-path="url(#clip1_920_708)"
     id="g4"
     transform="translate(-0.07234467,0.02868918)">
    <g
       filter="url(#filter1_i_920_708)"
       id="g3">
      <path
         d="m 29.6011,4.5593 c 1.1936,2.71659 3.2774,4.97405 5.9274,6.4216 0.0445,0.0243 0.0816,0.0596 0.1075,0.1025 0.0258,0.0428 0.0394,0.0915 0.0394,0.1411 0,0.0497 -0.0136,0.0984 -0.0394,0.1412 -0.0259,0.0428 -0.063,0.0782 -0.1075,0.1025 -2.6502,1.4477 -4.734,3.7055 -5.9274,6.4224 -0.0236,0.0516 -0.062,0.0954 -0.1107,0.1262 -0.0487,0.0307 -0.1055,0.0471 -0.1636,0.0471 -0.0581,0 -0.1149,-0.0164 -0.1636,-0.0471 -0.0487,-0.0308 -0.0872,-0.0746 -0.1108,-0.1262 -1.1933,-2.7169 -3.2771,-4.9747 -5.9273,-6.4224 -0.0446,-0.0243 -0.0817,-0.0597 -0.1075,-0.1025 -0.0258,-0.0428 -0.0394,-0.0915 -0.0394,-0.1412 0,-0.0496 0.0136,-0.0983 0.0394,-0.1411 0.0258,-0.0429 0.0629,-0.0782 0.1075,-0.1025 2.65,-1.44755 4.7337,-3.70501 5.9273,-6.4216 0.0236,-0.05156 0.0621,-0.09538 0.1108,-0.12613 0.0487,-0.03075 0.1055,-0.04712 0.1636,-0.04712 0.0581,0 0.1149,0.01637 0.1636,0.04712 0.0487,0.03075 0.0871,0.07457 0.1107,0.12613 z"
         fill="url(#paint1_linear_920_708)"
         id="path3"
         style="fill:url(#paint1_linear_920_708)" />
    </g>
    <path
       d="m 35.4086,11.2003 3e-4,10e-5 c 0.0062,0.0034 0.0104,0.0078 0.013,0.012 0.0025,0.0042 0.0035,0.0084 0.0035,0.0121 0,0.0038 -0.001,0.0079 -0.0036,0.0121 -0.0025,0.0043 -0.0067,0.0087 -0.0129,0.012 l -3e-4,2e-4 c -2.6969,1.4732 -4.8191,3.7714 -6.0353,6.5388 -0.0031,0.0064 -0.0085,0.0128 -0.0164,0.0178 l 0.1335,0.2114 -0.1335,-0.2114 c -0.0084,0.0053 -0.0189,0.0085 -0.0301,0.0085 -0.0113,0 -0.0217,-0.0032 -0.0301,-0.0085 -0.008,-0.005 -0.0133,-0.0114 -0.0165,-0.0178 -1.2162,-2.7674 -3.3383,-5.0656 -6.0353,-6.5388 l -2e-4,-2e-4 c -0.0062,-0.0033 -0.0104,-0.0077 -0.013,-0.012 -0.0025,-0.0041 -0.0035,-0.0083 -0.0035,-0.0121 0,-0.0037 10e-4,-0.0079 0.0035,-0.0121 0.0026,-0.0042 0.0068,-0.0086 0.013,-0.012 l 2e-4,-10e-5 c 2.6968,-1.47308 4.8189,-3.77094 6.0353,-6.53793 0.0032,-0.00639 0.0085,-0.01281 0.0165,-0.01783 0.0084,-0.00529 0.0188,-0.00849 0.0301,-0.00849 0.0112,0 0.0217,0.0032 0.0301,0.00849 l 0.1335,-0.21137 -0.1335,0.21137 c 0.0079,0.00502 0.0133,0.01144 0.0164,0.01782 1.2165,2.767 3.3386,5.06486 6.0353,6.53794 z"
       stroke="#ef7e30"
       stroke-width="0.5"
       id="path4" />
  </g>
</svg>
