<svg width="42" height="42" viewBox="0 0 42 42" fill="none" xmlns="http://www.w3.org/2000/svg">
<g filter="url(#filter0_i_2731_202)">
<path d="M33.25 21.4936V24.5001C33.25 27.749 31.9594 30.8648 29.6621 33.1622C27.3647 35.4595 24.2489 36.7501 21 36.7501C17.7511 36.7501 14.6353 35.4595 12.3379 33.1622C10.0406 30.8648 8.75 27.749 8.75 24.5001V21.4936L19.8783 26.7558C20.229 26.9216 20.6121 27.0076 21 27.0076C21.3879 27.0076 21.771 26.9216 22.1218 26.7558L33.25 21.4936ZM22.1218 4.7461L38.0118 12.2606C39.2963 12.8661 39.459 14.5391 38.5 15.4158V22.7501C38.5 23.2142 38.3156 23.6593 37.9874 23.9875C37.6593 24.3157 37.2141 24.5001 36.75 24.5001C36.2859 24.5001 35.8408 24.3157 35.5126 23.9875C35.1844 23.6593 35 23.2142 35 22.7501V17.1676L22.1218 23.2576C21.771 23.4234 21.3879 23.5093 21 23.5093C20.6121 23.5093 20.229 23.4234 19.8783 23.2576L3.98825 15.7413C3.65899 15.5853 3.38078 15.339 3.18596 15.031C2.99115 14.7231 2.88773 14.3662 2.88773 14.0018C2.88773 13.6375 2.99115 13.2806 3.18596 12.9726C3.38078 12.6647 3.65899 12.4184 3.98825 12.2623L19.8783 4.74785C20.229 4.58207 20.6121 4.49609 21 4.49609C21.3879 4.49609 21.771 4.58207 22.1218 4.74785V4.7461Z" fill="#09244B"/>
<path d="M33.25 21.4936V24.5001C33.25 27.749 31.9594 30.8648 29.6621 33.1622C27.3647 35.4595 24.2489 36.7501 21 36.7501C17.7511 36.7501 14.6353 35.4595 12.3379 33.1622C10.0406 30.8648 8.75 27.749 8.75 24.5001V21.4936L19.8783 26.7558C20.229 26.9216 20.6121 27.0076 21 27.0076C21.3879 27.0076 21.771 26.9216 22.1218 26.7558L33.25 21.4936ZM22.1218 4.7461L38.0118 12.2606C39.2963 12.8661 39.459 14.5391 38.5 15.4158V22.7501C38.5 23.2142 38.3156 23.6593 37.9874 23.9875C37.6593 24.3157 37.2141 24.5001 36.75 24.5001C36.2859 24.5001 35.8408 24.3157 35.5126 23.9875C35.1844 23.6593 35 23.2142 35 22.7501V17.1676L22.1218 23.2576C21.771 23.4234 21.3879 23.5093 21 23.5093C20.6121 23.5093 20.229 23.4234 19.8783 23.2576L3.98825 15.7413C3.65899 15.5853 3.38078 15.339 3.18596 15.031C2.99115 14.7231 2.88773 14.3662 2.88773 14.0018C2.88773 13.6375 2.99115 13.2806 3.18596 12.9726C3.38078 12.6647 3.65899 12.4184 3.98825 12.2623L19.8783 4.74785C20.229 4.58207 20.6121 4.49609 21 4.49609C21.3879 4.49609 21.771 4.58207 22.1218 4.74785V4.7461Z" fill="url(#paint0_linear_2731_202)"/>
</g>
<path d="M21.9081 22.8055L34.7863 16.7156L35.5 16.3781V17.1676V22.7501C35.5 23.0816 35.6317 23.3996 35.8661 23.634C36.1005 23.8684 36.4185 24.0001 36.75 24.0001C37.0815 24.0001 37.3995 23.8684 37.6339 23.634C37.8683 23.3996 38 23.0816 38 22.7501V15.4158V15.1955L38.1626 15.0468C38.8734 14.397 38.744 13.1586 37.7986 12.7129L37.798 12.7126L22.6218 5.53564V5.53722L21.9081 5.19989C21.6242 5.0657 21.314 4.99609 21 4.99609C20.686 4.99609 20.3759 5.06568 20.092 5.19985C20.092 5.19987 20.092 5.19988 20.0919 5.19989L4.2024 12.7142C3.95866 12.8297 3.75271 13.012 3.6085 13.24C3.46429 13.4679 3.38773 13.7321 3.38773 14.0018C3.38773 14.2716 3.46429 14.5358 3.6085 14.7637C3.75264 14.9916 3.95846 15.1738 4.20205 15.2894L21.9081 22.8055ZM21.9081 22.8055C21.6242 22.9397 21.314 23.0093 21 23.0093C20.686 23.0093 20.3759 22.9398 20.0921 22.8056C20.092 22.8056 20.092 22.8056 20.0919 22.8055L4.2024 15.2895L21.9081 22.8055ZM32.75 22.2831V24.5001C32.75 27.6164 31.5121 30.605 29.3085 32.8086C27.105 35.0122 24.1163 36.2501 21 36.2501C17.8837 36.2501 14.895 35.0122 12.6915 32.8086C10.4879 30.605 9.25 27.6164 9.25 24.5001V22.2831L19.6645 27.2079L19.6646 27.2079C20.0821 27.4052 20.5382 27.5076 21 27.5076C21.4618 27.5076 21.9179 27.4052 22.3354 27.2079L22.3355 27.2079L32.75 22.2831Z" stroke="#D12329"/>
<defs>
<filter id="filter0_i_2731_202" x="2.88773" y="4.49609" width="36.2272" height="33.2539" filterUnits="userSpaceOnUse" color-interpolation-filters="sRGB">
<feFlood flood-opacity="0" result="BackgroundImageFix"/>
<feBlend mode="normal" in="SourceGraphic" in2="BackgroundImageFix" result="shape"/>
<feColorMatrix in="SourceAlpha" type="matrix" values="0 0 0 0 0 0 0 0 0 0 0 0 0 0 0 0 0 0 127 0" result="hardAlpha"/>
<feOffset dy="1"/>
<feGaussianBlur stdDeviation="0.5"/>
<feComposite in2="hardAlpha" operator="arithmetic" k2="-1" k3="1"/>
<feColorMatrix type="matrix" values="0 0 0 0 1 0 0 0 0 0.3375 0 0 0 0 0.3375 0 0 0 1 0"/>
<feBlend mode="normal" in2="shape" result="effect1_innerShadow_2731_202"/>
</filter>
<linearGradient id="paint0_linear_2731_202" x1="21.0013" y1="4.49609" x2="21.0013" y2="36.7501" gradientUnits="userSpaceOnUse">
<stop stop-color="#F9242C"/>
<stop offset="1" stop-color="#D12329"/>
</linearGradient>
</defs>
</svg>
