<?xml version="1.0" encoding="UTF-8" standalone="no"?>
<svg
   width="42"
   height="42"
   viewBox="0 0 42 42"
   fill="none"
   version="1.1"
   id="svg6"
   sodipodi:docname="quran.svg"
   inkscape:version="1.4 (e7c3feb100, 2024-10-09)"
   xmlns:inkscape="http://www.inkscape.org/namespaces/inkscape"
   xmlns:sodipodi="http://sodipodi.sourceforge.net/DTD/sodipodi-0.dtd"
   xmlns="http://www.w3.org/2000/svg"
   xmlns:svg="http://www.w3.org/2000/svg">
  <sodipodi:namedview
     id="namedview6"
     pagecolor="#ffffff"
     bordercolor="#000000"
     borderopacity="0.25"
     inkscape:showpageshadow="2"
     inkscape:pageopacity="0.0"
     inkscape:pagecheckerboard="0"
     inkscape:deskcolor="#d1d1d1"
     inkscape:zoom="11.313709"
     inkscape:cx="9.2365819"
     inkscape:cy="13.214057"
     inkscape:window-width="2048"
     inkscape:window-height="1080"
     inkscape:window-x="0"
     inkscape:window-y="0"
     inkscape:window-maximized="1"
     inkscape:current-layer="g4" />
  <g
     clip-path="url(#clip0_2735_11)"
     id="g4">
    <g
       filter="url(#filter0_i_2735_11)"
       id="g3"
       transform="matrix(0.83555657,0,0,0.83555657,3.4533121,3.5355337)">
      <path
         d="m 38.5,36.75 c 0,2.8997 -2.3502,5.25 -5.25,5.25 h -21 C 7.41825,42 3.5,38.0817 3.5,33.25 V 31.5 h 29.75 c 2.8998,0 5.25,2.3503 5.25,5.25 z m 0,-28.04725 V 29.7937 C 37.2768,28.8715 35.8313,28.2888 34.3088,28.1068 33.9605,28.035 33.6053,28 33.25,28 H 3.5 V 8.75 C 3.5,3.91825 7.41825,0 12.25,0 h 17.5578 c 4.802,0 8.694,3.90075 8.6922,8.70275 z M 21.6755,21.4725 C 19.327,20.0183 17.5,17.5018 17.5,14.0018 c 0,-3.5 1.827,-6.01655 4.1755,-7.4708 C 22.2128,6.1985 21.9958,5.36725 21.3658,5.299 20.853,5.243 20.3263,5.236 19.7855,5.28675 15.4333,5.7015 12.0068,9.63725 12.25,14.0018 c -0.2432,4.3645 3.185,8.3002 7.5355,8.7149 0.5408,0.0508 1.0675,0.0456 1.5803,-0.0122 0.6282,-0.07 0.847,-0.8995 0.3097,-1.232 z m 8.12,-8.7885 c 0,-0.2397 -0.1942,-0.434 -0.434,-0.434 h -2.793 L 25.7828,9.2435 c -0.0543,-0.2065 -0.2398,-0.35 -0.4533,-0.35 -0.2135,0 -0.399,0.1435 -0.4532,0.35 L 24.0888,12.25 h -2.8123 c -0.2397,0 -0.434,0.1943 -0.434,0.434 0,0.1575 0.0858,0.3028 0.2223,0.378 l 2.2557,1.2547 -0.8732,2.7301 c -0.0595,0.1855 0.0052,0.3867 0.161,0.504 0.1645,0.1242 0.392,0.1225 0.5547,-0.0035 l 2.1665,-1.6748 2.1648,1.673 c 0.1592,0.1225 0.3815,0.1295 0.546,0.014 0.1662,-0.1172 0.238,-0.329 0.1732,-0.5233 l -0.882,-2.6792 2.2453,-1.2985 c 0.1347,-0.077 0.2187,-0.2205 0.2187,-0.3745 z"
         fill="#000000"
         id="path1" />
      <path
         d="m 38.5,36.75 c 0,2.8997 -2.3502,5.25 -5.25,5.25 h -21 C 7.41825,42 3.5,38.0817 3.5,33.25 V 31.5 h 29.75 c 2.8998,0 5.25,2.3503 5.25,5.25 z m 0,-28.04725 V 29.7937 C 37.2768,28.8715 35.8313,28.2888 34.3088,28.1068 33.9605,28.035 33.6053,28 33.25,28 H 3.5 V 8.75 C 3.5,3.91825 7.41825,0 12.25,0 h 17.5578 c 4.802,0 8.694,3.90075 8.6922,8.70275 z M 21.6755,21.4725 C 19.327,20.0183 17.5,17.5018 17.5,14.0018 c 0,-3.5 1.827,-6.01655 4.1755,-7.4708 C 22.2128,6.1985 21.9958,5.36725 21.3658,5.299 20.853,5.243 20.3263,5.236 19.7855,5.28675 15.4333,5.7015 12.0068,9.63725 12.25,14.0018 c -0.2432,4.3645 3.185,8.3002 7.5355,8.7149 0.5408,0.0508 1.0675,0.0456 1.5803,-0.0122 0.6282,-0.07 0.847,-0.8995 0.3097,-1.232 z m 8.12,-8.7885 c 0,-0.2397 -0.1942,-0.434 -0.434,-0.434 h -2.793 L 25.7828,9.2435 c -0.0543,-0.2065 -0.2398,-0.35 -0.4533,-0.35 -0.2135,0 -0.399,0.1435 -0.4532,0.35 L 24.0888,12.25 h -2.8123 c -0.2397,0 -0.434,0.1943 -0.434,0.434 0,0.1575 0.0858,0.3028 0.2223,0.378 l 2.2557,1.2547 -0.8732,2.7301 c -0.0595,0.1855 0.0052,0.3867 0.161,0.504 0.1645,0.1242 0.392,0.1225 0.5547,-0.0035 l 2.1665,-1.6748 2.1648,1.673 c 0.1592,0.1225 0.3815,0.1295 0.546,0.014 0.1662,-0.1172 0.238,-0.329 0.1732,-0.5233 l -0.882,-2.6792 2.2453,-1.2985 c 0.1347,-0.077 0.2187,-0.2205 0.2187,-0.3745 z"
         fill="#1b52c8"
         id="path2" />
      <path
         d="m 38.5,36.75 c 0,2.8997 -2.3502,5.25 -5.25,5.25 h -21 C 7.41825,42 3.5,38.0817 3.5,33.25 V 31.5 h 29.75 c 2.8998,0 5.25,2.3503 5.25,5.25 z m 0,-28.04725 V 29.7937 C 37.2768,28.8715 35.8313,28.2888 34.3088,28.1068 33.9605,28.035 33.6053,28 33.25,28 H 3.5 V 8.75 C 3.5,3.91825 7.41825,0 12.25,0 h 17.5578 c 4.802,0 8.694,3.90075 8.6922,8.70275 z M 21.6755,21.4725 C 19.327,20.0183 17.5,17.5018 17.5,14.0018 c 0,-3.5 1.827,-6.01655 4.1755,-7.4708 C 22.2128,6.1985 21.9958,5.36725 21.3658,5.299 20.853,5.243 20.3263,5.236 19.7855,5.28675 15.4333,5.7015 12.0068,9.63725 12.25,14.0018 c -0.2432,4.3645 3.185,8.3002 7.5355,8.7149 0.5408,0.0508 1.0675,0.0456 1.5803,-0.0122 0.6282,-0.07 0.847,-0.8995 0.3097,-1.232 z m 8.12,-8.7885 c 0,-0.2397 -0.1942,-0.434 -0.434,-0.434 h -2.793 L 25.7828,9.2435 c -0.0543,-0.2065 -0.2398,-0.35 -0.4533,-0.35 -0.2135,0 -0.399,0.1435 -0.4532,0.35 L 24.0888,12.25 h -2.8123 c -0.2397,0 -0.434,0.1943 -0.434,0.434 0,0.1575 0.0858,0.3028 0.2223,0.378 l 2.2557,1.2547 -0.8732,2.7301 c -0.0595,0.1855 0.0052,0.3867 0.161,0.504 0.1645,0.1242 0.392,0.1225 0.5547,-0.0035 l 2.1665,-1.6748 2.1648,1.673 c 0.1592,0.1225 0.3815,0.1295 0.546,0.014 0.1662,-0.1172 0.238,-0.329 0.1732,-0.5233 l -0.882,-2.6792 2.2453,-1.2985 c 0.1347,-0.077 0.2187,-0.2205 0.2187,-0.3745 z"
         fill="url(#paint0_linear_2735_11)"
         fill-opacity="0.5"
         id="path3"
         style="fill:url(#paint0_linear_2735_11)" />
    </g>
    <path
       d="m 19.945611,7.5370142 5.85e-4,-5.02e-5 C 20.426808,7.491852 20.895138,7.498077 21.3506,7.547801 Z m 0,0 c -3.849158,0.3668093 -6.877633,3.8332908 -6.675094,7.6978158 -0.202539,3.864532 2.82744,7.330922 6.675094,7.697732 l 0.04954,8.3e-5 M 25.393763,11.14958 c 0.191754,0.733478 0.389948,1.470248 0.581642,2.203743 h 2.011101 c 0.431064,0 0.78041,0.349347 0.78041,0.78041 0,0.280079 -0.151737,0.537012 -0.392043,0.674963 -4.18e-4,2.51e-4 -8.36e-4,4.18e-4 -0.0013,6.68e-4 l -1.580372,0.914016 0.630344,1.914761 c 1.67e-4,4.18e-4 0.02318,0.02042 4.18e-4,0.0013 l 8.3e-5,2.51e-4 m -2.026042,-6.458739 c -0.09342,-0.355562 -0.411694,-0.632128 -0.780509,-0.632128 -0.368814,0 -0.689334,0.248503 -0.782749,0.604065 l -8.4e-5,3.01e-4 m 0,0 -0.576283,2.200179 m 0.576283,-2.200179 -0.659368,2.486362 M 18.49333,15.23483 c 0,2.759258 1.433314,4.736603 3.290923,5.886914 0.401151,0.248243 0.51462,0.68925 0.42062,1.055976 -0.09308,0.363133 -0.397809,0.693094 -0.852769,0.743896 l -0.254835,0.0033 -1.111157,0.0079 M 18.49333,15.247885 c 0,-2.759342 1.433314,-4.749734 3.290923,-5.9000861 m 0,0 c 0.4009,-0.2481185 0.514954,-0.6892172 0.421288,-1.0560933 -0.09283,-0.3637345 -0.398143,-0.694264 -0.854607,-0.7438626 m 13.853528,3.25918 v 1.51e-4 16.837676 C 34.285433,27.092965 33.258033,26.738104 32.1871,26.60759 31.873098,26.54409 31.553915,26.51334 31.235568,26.51334 H 6.7955384 V 10.846654 c 0,-3.8064701 3.0868718,-6.893342 6.8933416,-6.893342 h 14.670535 c 3.781061,0 6.846467,3.0716982 6.845047,6.853711 z m 0,23.435215 c 0,2.192166 -1.776728,3.968893 -3.968894,3.968893 H 13.68888 c -3.8064698,0 -6.8933416,-3.08688 -6.8933416,-6.893341 V 30.273344 H 31.235568 c 2.192166,0 3.968894,1.776727 3.968894,3.968894 z M 23.572303,13.371787 21.231031,13.353323 c -0.43105,-0.0034 -0.780409,0.349347 -0.780409,0.78041 0,0.282586 0.153324,0.544365 0.400983,0.681313 3.34e-4,8.4e-5 5.85e-4,2.51e-4 8.36e-4,4.18e-4 l 1.584299,0.881261 -0.625331,1.954701 v 8.4e-5 c -0.05465,0.794487 0.563626,1.11482 0.98452,0.941185 0.588333,-0.242711 1.837567,-1.338402 1.837567,-1.338402 0,0 1.689125,1.597429 2.288914,1.368065 0.59979,-0.229364 0.521435,-0.413839 0.518004,-0.969643"
       stroke="#1b52c8"
       id="path4"
       sodipodi:nodetypes="ccccccccccsscccccccsccccccccsccccccccsssccccccssccscsssssssscssczc"
       style="stroke-width:0.835557" />
  </g>
  <defs
     id="defs6">
    <filter
       id="filter0_i_2735_11"
       x="3.5"
       y="0"
       width="35"
       height="43"
       filterUnits="userSpaceOnUse"
       color-interpolation-filters="sRGB">
      <feFlood
         flood-opacity="0"
         result="BackgroundImageFix"
         id="feFlood4" />
      <feBlend
         mode="normal"
         in="SourceGraphic"
         in2="BackgroundImageFix"
         result="shape"
         id="feBlend4" />
      <feColorMatrix
         in="SourceAlpha"
         type="matrix"
         values="0 0 0 0 0 0 0 0 0 0 0 0 0 0 0 0 0 0 127 0"
         result="hardAlpha"
         id="feColorMatrix4" />
      <feOffset
         dy="1"
         id="feOffset4" />
      <feGaussianBlur
         stdDeviation="0.5"
         id="feGaussianBlur4" />
      <feComposite
         in2="hardAlpha"
         operator="arithmetic"
         k2="-1"
         k3="1"
         id="feComposite4" />
      <feColorMatrix
         type="matrix"
         values="0 0 0 0 0.333333 0 0 0 0 0.466667 0 0 0 0 1 0 0 0 1 0"
         id="feColorMatrix5" />
      <feBlend
         mode="normal"
         in2="shape"
         result="effect1_innerShadow_2735_11"
         id="feBlend5" />
    </filter>
    <linearGradient
       id="paint0_linear_2735_11"
       x1="21"
       y1="0"
       x2="21"
       y2="42"
       gradientUnits="userSpaceOnUse">
      <stop
         stop-color="#4385DC"
         id="stop5" />
      <stop
         offset="1"
         stop-color="#1B52C8"
         id="stop6" />
    </linearGradient>
    <clipPath
       id="clip0_2735_11">
      <rect
         width="42"
         height="42"
         fill="white"
         id="rect6" />
    </clipPath>
  </defs>
</svg>
