<svg width="40" height="40" viewBox="0 0 40 40" fill="none" xmlns="http://www.w3.org/2000/svg">
<g clip-path="url(#clip0_1651_816)">
<path d="M18.2 4.78C18.3834 4.46526 18.6461 4.20412 18.962 4.02262C19.2778 3.84112 19.6357 3.74561 20 3.74561C20.3642 3.74561 20.7222 3.84112 21.038 4.02262C21.3538 4.20412 21.6166 4.46526 21.8 4.78L26.4583 12.7767L35.505 14.7367C35.8608 14.814 36.1902 14.9832 36.4602 15.2276C36.7303 15.4719 36.9316 15.7827 37.0441 16.129C37.1565 16.4754 37.1763 16.8452 37.1013 17.2015C37.0263 17.5579 36.8592 17.8884 36.6166 18.16L30.45 25.0617L31.3833 34.27C31.4201 34.6326 31.3612 34.9985 31.2124 35.3312C31.0635 35.6639 30.83 35.9517 30.5352 36.1659C30.2403 36.3801 29.8944 36.5133 29.532 36.552C29.1697 36.5907 28.8034 36.5337 28.47 36.3867L20 32.6533L11.53 36.3867C11.1965 36.5337 10.8303 36.5907 10.4679 36.552C10.1055 36.5133 9.75961 36.3801 9.46476 36.1659C9.16991 35.9517 8.93641 35.6639 8.78759 35.3312C8.63877 34.9985 8.57982 34.6326 8.61664 34.27L9.54997 25.0617L3.38331 18.1617C3.14035 17.89 2.9729 17.5594 2.89766 17.2029C2.82243 16.8463 2.84204 16.4762 2.95455 16.1296C3.06705 15.783 3.26851 15.4719 3.53882 15.2275C3.80912 14.9831 4.13881 14.8138 4.49498 14.7367L13.5416 12.7767L18.2 4.78Z" fill="#FFB743"/>
</g>
<defs>
<clipPath id="clip0_1651_816">
<rect width="40" height="40" fill="white"/>
</clipPath>
</defs>
</svg>
