<svg width="40" height="40" viewBox="0 0 40 40" fill="none" xmlns="http://www.w3.org/2000/svg">
<path d="M39.3718 19.9997V20.0005C39.3786 24.4708 37.8326 28.8048 34.9981 32.2615L34.8181 32.4811L34.8071 32.4904L34.7803 32.522C32.9638 34.6707 30.7001 36.3968 28.1473 37.5799C25.5944 38.763 22.8141 39.3744 20.0005 39.3715H20C14.2869 39.3715 9.15524 36.8998 5.60956 32.9684L5.21511 32.5148L5.18876 32.4845L5.18109 32.4781L5.00187 32.2595C2.16762 28.8034 0.621651 24.4701 0.628195 20.0005V19.9997C0.628195 9.30068 9.30094 0.62793 20 0.62793C30.699 0.62793 39.3718 9.30068 39.3718 19.9997ZM20.0004 29.4356H20C16.1995 29.4356 12.7654 30.6444 10.2029 32.3104L9.60325 32.7003L10.1754 33.1295C13.009 35.2557 16.4573 36.4026 20 36.3972C23.5426 36.4026 26.9909 35.2557 29.8246 33.1295L30.4008 32.6972L29.7943 32.3086C26.871 30.4354 23.4724 29.4384 20.0004 29.4356ZM7.17311 30.2153L7.46934 30.5873L7.85569 30.3101C10.9969 28.0564 15.2916 26.4613 20 26.4613C24.7084 26.4613 29.0031 28.0564 32.1443 30.3101L32.5306 30.5873L32.8269 30.2153C34.7493 27.8016 35.9516 24.8944 36.2956 21.8279C36.6397 18.7614 36.1115 15.66 34.7717 12.8803C33.4319 10.1006 31.335 7.75532 28.7219 6.11407C26.1089 4.47282 23.0857 3.6022 20 3.60229C16.9143 3.6022 13.8911 4.47282 11.278 6.11407C8.66498 7.75532 6.56806 10.1006 5.22829 12.8803C3.88853 15.66 3.3603 18.7614 3.70434 21.8279C4.04837 24.8944 5.25069 27.8016 7.17311 30.2153ZM20 8.57665C21.9755 8.57665 23.8701 9.36142 25.267 10.7583C26.6639 12.1552 27.4487 14.0498 27.4487 16.0254C27.4487 18.0009 26.6639 19.8955 25.267 21.2924C23.8701 22.6893 21.9755 23.4741 20 23.4741C18.0245 23.4741 16.1299 22.6893 14.733 21.2924C13.336 19.8955 12.5513 18.0009 12.5513 16.0254C12.5513 14.0498 13.336 12.1552 14.7329 10.7583C16.1299 9.36142 18.0245 8.57665 20 8.57665ZM20 11.551C18.8133 11.551 17.6752 12.0224 16.8361 12.8615C15.997 13.7006 15.5256 14.8387 15.5256 16.0254C15.5256 17.212 15.997 18.3501 16.8361 19.1892C17.6752 20.0283 18.8133 20.4997 20 20.4997C21.1867 20.4997 22.3247 20.0283 23.1638 19.1892C24.0029 18.3501 24.4743 17.212 24.4743 16.0254C24.4743 14.8387 24.0029 13.7006 23.1638 12.8615C22.3247 12.0224 21.1867 11.551 20 11.551Z" fill="#A0A0A0" fill-opacity="0.5" stroke="#EBEBEB"/>
</svg>
