<?xml version="1.0" encoding="UTF-8" standalone="no"?>
<svg
   width="438.12091"
   height="1077.4828"
   viewBox="0 0 438.12091 1077.4828"
   fill="none"
   version="1.1"
   id="svg6"
   xmlns="http://www.w3.org/2000/svg"
   xmlns:svg="http://www.w3.org/2000/svg">
  <defs
     id="defs6" />
  <rect
     y="-975.7326"
     width="201.62506"
     height="201.62506"
     rx="9.5000029"
     transform="matrix(0.70710678,-0.70710678,-0.70710678,-0.70710678,0,0)"
     stroke="#000000"
     stroke-opacity="0.25"
     id="rect1"
     x="-552.90973" />
  <rect
     y="-749.68469"
     width="201.62506"
     height="201.62506"
     rx="9.5000029"
     transform="matrix(0.70710678,-0.70710678,-0.70710678,-0.70710678,0,0)"
     stroke="#000000"
     stroke-opacity="0.25"
     id="rect2"
     x="-552.91113" />
  <rect
     y="-749.68542"
     width="201.62506"
     height="201.62506"
     rx="9.5000029"
     transform="matrix(0.70710678,-0.70710678,-0.70710678,-0.70710678,0,0)"
     stroke="#000000"
     stroke-opacity="0.25"
     id="rect3"
     x="-326.86249" />
  <rect
     y="-523.63538"
     width="201.62506"
     height="201.62506"
     rx="9.5000029"
     transform="matrix(0.70710678,-0.70710678,-0.70710678,-0.70710678,0,0)"
     stroke="#000000"
     stroke-opacity="0.25"
     id="rect4"
     x="-100.8125" />
  <rect
     y="-523.63538"
     width="201.62506"
     height="201.62506"
     rx="9.5000029"
     transform="matrix(0.70710678,-0.70710678,-0.70710678,-0.70710678,0,0)"
     stroke="#000000"
     stroke-opacity="0.25"
     id="rect5"
     x="-326.86179" />
  <rect
     y="-297.58612"
     width="201.62506"
     height="201.62506"
     rx="9.5000029"
     transform="matrix(0.70710678,-0.70710678,-0.70710678,-0.70710678,0,0)"
     stroke="#000000"
     stroke-opacity="0.25"
     id="rect6"
     x="-100.8125" />
</svg>
