<?xml version="1.0" encoding="UTF-8" standalone="no"?>
<svg
   width="606.23761"
   height="1081.6194"
   viewBox="0 0 606.23761 1081.6194"
   fill="none"
   version="1.1"
   id="svg6"
   xmlns="http://www.w3.org/2000/svg"
   xmlns:svg="http://www.w3.org/2000/svg">
  <defs
     id="defs6" />
  <rect
     y="-978.65802"
     width="201.62506"
     height="201.62506"
     transform="matrix(0.70710678,-0.70710678,-0.70710678,-0.70710678,0,0)"
     stroke="#000000"
     stroke-opacity="0.25"
     id="rect1"
     x="-549.98291" />
  <rect
     y="-752.61047"
     width="201.62506"
     height="201.62506"
     transform="matrix(0.70710678,-0.70710678,-0.70710678,-0.70710678,0,0)"
     stroke="#000000"
     stroke-opacity="0.25"
     id="rect2"
     x="-549.98541" />
  <rect
     y="-978.66016"
     width="201.62506"
     height="201.62506"
     transform="matrix(0.70710678,-0.70710678,-0.70710678,-0.70710678,0,0)"
     stroke="#000000"
     stroke-opacity="0.25"
     id="rect3"
     x="-323.93573" />
  <rect
     y="-752.61084"
     width="201.62506"
     height="201.62506"
     rx="9.5000029"
     transform="matrix(0.70710678,-0.70710678,-0.70710678,-0.70710678,0,0)"
     stroke="#000000"
     stroke-opacity="0.25"
     id="rect4"
     x="-323.93573" />
  <rect
     y="-526.56049"
     width="201.62506"
     height="201.62506"
     rx="9.5000029"
     transform="matrix(0.70710678,-0.70710678,-0.70710678,-0.70710678,0,0)"
     stroke="#000000"
     stroke-opacity="0.25"
     id="rect5"
     x="-323.93539" />
  <rect
     y="-300.51184"
     width="201.62506"
     height="201.62506"
     rx="9.5000029"
     transform="matrix(0.70710678,-0.70710678,-0.70710678,-0.70710678,0,0)"
     stroke="#000000"
     stroke-opacity="0.25"
     id="rect6"
     x="-97.88678" />
</svg>
