<svg width="560" height="1013" viewBox="0 0 560 1013" fill="none" xmlns="http://www.w3.org/2000/svg">
<rect y="-0.707107" width="201.625" height="201.625" rx="9.5" transform="matrix(0.707107 -0.707107 -0.707107 -0.707107 622.3 1011.55)" stroke="black" stroke-opacity="0.25"/>
<rect y="-0.707107" width="201.625" height="201.625" rx="9.5" transform="matrix(0.707107 -0.707107 -0.707107 -0.707107 462.459 851.711)" stroke="black" stroke-opacity="0.25"/>
<rect y="-0.707107" width="201.625" height="201.625" rx="9.5" transform="matrix(0.707107 -0.707107 -0.707107 -0.707107 622.3 691.871)" stroke="black" stroke-opacity="0.25"/>
<rect y="-0.707107" width="201.625" height="201.625" rx="9.5" transform="matrix(0.707107 -0.707107 -0.707107 -0.707107 622.3 372.188)" stroke="black" stroke-opacity="0.25"/>
<rect y="-0.707107" width="201.625" height="201.625" rx="9.5" transform="matrix(0.707107 -0.707107 -0.707107 -0.707107 462.459 532.029)" stroke="black" stroke-opacity="0.25"/>
<rect y="-0.707107" width="201.625" height="201.625" rx="9.5" transform="matrix(0.707107 -0.707107 -0.707107 -0.707107 462.459 212.347)" stroke="black" stroke-opacity="0.25"/>
</svg>
