<svg width="113" height="112" viewBox="0 0 113 112" fill="none" xmlns="http://www.w3.org/2000/svg">
<rect x="0.333374" width="112" height="112" rx="56" fill="white"/>
<g clip-path="url(#clip0_1131_149)">
<g filter="url(#filter0_i_1131_149)">
<path d="M65.0667 24.8733C65.6994 25.0503 66.291 25.3503 66.8077 25.7561C67.3244 26.1619 67.7561 26.6655 68.078 27.2382C68.4 27.8109 68.6059 28.4415 68.684 29.0938C68.7622 29.7461 68.711 30.4074 68.5334 31.04L53.7634 83.6633C53.4053 84.9403 52.5547 86.0228 51.3985 86.6726C50.2423 87.3224 48.8754 87.4863 47.5984 87.1283C46.3214 86.7703 45.2389 85.9196 44.5891 84.7634C43.9392 83.6073 43.7753 82.2403 44.1334 80.9633L58.9034 28.3333C59.0807 27.7009 59.381 27.1097 59.7869 26.5933C60.1928 26.077 60.6965 25.6457 61.2692 25.3241C61.8419 25.0025 62.4723 24.7968 63.1244 24.7189C63.7766 24.641 64.4377 24.6923 65.07 24.87L65.0667 24.8733ZM41.5334 38.3233C42.4697 39.2608 42.9956 40.5316 42.9956 41.8566C42.9956 43.1817 42.4697 44.4525 41.5334 45.39L30.9334 56L41.54 66.6066C42.4776 67.5446 43.0041 68.8166 43.0038 70.1428C43.0035 71.469 42.4764 72.7408 41.5384 73.6783C40.6004 74.6158 39.3284 75.1424 38.0022 75.1421C36.676 75.1418 35.4042 74.6146 34.4667 73.6766L20.3234 59.5333C19.387 58.5958 18.8611 57.325 18.8611 56C18.8611 54.675 19.387 53.4041 20.3234 52.4666L34.4634 38.3233C34.9277 37.8587 35.479 37.4901 36.0859 37.2386C36.6927 36.9871 37.3432 36.8577 38 36.8577C38.6569 36.8577 39.3074 36.9871 39.9142 37.2386C40.521 37.4901 41.069 37.8587 41.5334 38.3233ZM71.1334 45.39C70.6421 44.9322 70.2481 44.3802 69.9748 43.7669C69.7016 43.1536 69.5546 42.4915 69.5428 41.8201C69.5309 41.1488 69.6544 40.4819 69.9059 39.8593C70.1574 39.2367 70.5317 38.6712 71.0065 38.1964C71.4812 37.7216 72.0468 37.3473 72.6694 37.0958C73.292 36.8444 73.9588 36.7209 74.6302 36.7327C75.3015 36.7445 75.9636 36.8915 76.577 37.1648C77.1903 37.4381 77.7423 37.8321 78.2 38.3233L92.3434 52.4633C93.2807 53.401 93.8073 54.6725 93.8073 55.9983C93.8073 57.3241 93.2807 58.5957 92.3434 59.5333L78.2034 73.6766C77.7392 74.1411 77.188 74.5095 76.5814 74.761C75.9748 75.0124 75.3245 75.1419 74.6679 75.1421C74.0112 75.1422 73.361 75.013 72.7542 74.7619C72.1475 74.5107 71.5961 74.1425 71.1317 73.6783C70.6673 73.2141 70.2988 72.6629 70.0474 72.0563C69.7959 71.4497 69.6664 70.7995 69.6663 70.1428C69.6661 69.4862 69.7953 68.8359 70.0465 68.2292C70.2976 67.6224 70.6658 67.0711 71.13 66.6066L81.7367 56L71.1334 45.39Z" fill="#09244B"/>
<path d="M65.0667 24.8733C65.6994 25.0503 66.291 25.3503 66.8077 25.7561C67.3244 26.1619 67.7561 26.6655 68.078 27.2382C68.4 27.8109 68.6059 28.4415 68.684 29.0938C68.7622 29.7461 68.711 30.4074 68.5334 31.04L53.7634 83.6633C53.4053 84.9403 52.5547 86.0228 51.3985 86.6726C50.2423 87.3224 48.8754 87.4863 47.5984 87.1283C46.3214 86.7703 45.2389 85.9196 44.5891 84.7634C43.9392 83.6073 43.7753 82.2403 44.1334 80.9633L58.9034 28.3333C59.0807 27.7009 59.381 27.1097 59.7869 26.5933C60.1928 26.077 60.6965 25.6457 61.2692 25.3241C61.8419 25.0025 62.4723 24.7968 63.1244 24.7189C63.7766 24.641 64.4377 24.6923 65.07 24.87L65.0667 24.8733ZM41.5334 38.3233C42.4697 39.2608 42.9956 40.5316 42.9956 41.8566C42.9956 43.1817 42.4697 44.4525 41.5334 45.39L30.9334 56L41.54 66.6066C42.4776 67.5446 43.0041 68.8166 43.0038 70.1428C43.0035 71.469 42.4764 72.7408 41.5384 73.6783C40.6004 74.6158 39.3284 75.1424 38.0022 75.1421C36.676 75.1418 35.4042 74.6146 34.4667 73.6766L20.3234 59.5333C19.387 58.5958 18.8611 57.325 18.8611 56C18.8611 54.675 19.387 53.4041 20.3234 52.4666L34.4634 38.3233C34.9277 37.8587 35.479 37.4901 36.0859 37.2386C36.6927 36.9871 37.3432 36.8577 38 36.8577C38.6569 36.8577 39.3074 36.9871 39.9142 37.2386C40.521 37.4901 41.069 37.8587 41.5334 38.3233ZM71.1334 45.39C70.6421 44.9322 70.2481 44.3802 69.9748 43.7669C69.7016 43.1536 69.5546 42.4915 69.5428 41.8201C69.5309 41.1488 69.6544 40.4819 69.9059 39.8593C70.1574 39.2367 70.5317 38.6712 71.0065 38.1964C71.4812 37.7216 72.0468 37.3473 72.6694 37.0958C73.292 36.8444 73.9588 36.7209 74.6302 36.7327C75.3015 36.7445 75.9636 36.8915 76.577 37.1648C77.1903 37.4381 77.7423 37.8321 78.2 38.3233L92.3434 52.4633C93.2807 53.401 93.8073 54.6725 93.8073 55.9983C93.8073 57.3241 93.2807 58.5957 92.3434 59.5333L78.2034 73.6766C77.7392 74.1411 77.188 74.5095 76.5814 74.761C75.9748 75.0124 75.3245 75.1419 74.6679 75.1421C74.0112 75.1422 73.361 75.013 72.7542 74.7619C72.1475 74.5107 71.5961 74.1425 71.1317 73.6783C70.6673 73.2141 70.2988 72.6629 70.0474 72.0563C69.7959 71.4497 69.6664 70.7995 69.6663 70.1428C69.6661 69.4862 69.7953 68.8359 70.0465 68.2292C70.2976 67.6224 70.6658 67.0711 71.13 66.6066L81.7367 56L71.1334 45.39Z" fill="#1B52C8"/>
<path d="M65.0667 24.8733C65.6994 25.0503 66.291 25.3503 66.8077 25.7561C67.3244 26.1619 67.7561 26.6655 68.078 27.2382C68.4 27.8109 68.6059 28.4415 68.684 29.0938C68.7622 29.7461 68.711 30.4074 68.5334 31.04L53.7634 83.6633C53.4053 84.9403 52.5547 86.0228 51.3985 86.6726C50.2423 87.3224 48.8754 87.4863 47.5984 87.1283C46.3214 86.7703 45.2389 85.9196 44.5891 84.7634C43.9392 83.6073 43.7753 82.2403 44.1334 80.9633L58.9034 28.3333C59.0807 27.7009 59.381 27.1097 59.7869 26.5933C60.1928 26.077 60.6965 25.6457 61.2692 25.3241C61.8419 25.0025 62.4723 24.7968 63.1244 24.7189C63.7766 24.641 64.4377 24.6923 65.07 24.87L65.0667 24.8733ZM41.5334 38.3233C42.4697 39.2608 42.9956 40.5316 42.9956 41.8566C42.9956 43.1817 42.4697 44.4525 41.5334 45.39L30.9334 56L41.54 66.6066C42.4776 67.5446 43.0041 68.8166 43.0038 70.1428C43.0035 71.469 42.4764 72.7408 41.5384 73.6783C40.6004 74.6158 39.3284 75.1424 38.0022 75.1421C36.676 75.1418 35.4042 74.6146 34.4667 73.6766L20.3234 59.5333C19.387 58.5958 18.8611 57.325 18.8611 56C18.8611 54.675 19.387 53.4041 20.3234 52.4666L34.4634 38.3233C34.9277 37.8587 35.479 37.4901 36.0859 37.2386C36.6927 36.9871 37.3432 36.8577 38 36.8577C38.6569 36.8577 39.3074 36.9871 39.9142 37.2386C40.521 37.4901 41.069 37.8587 41.5334 38.3233ZM71.1334 45.39C70.6421 44.9322 70.2481 44.3802 69.9748 43.7669C69.7016 43.1536 69.5546 42.4915 69.5428 41.8201C69.5309 41.1488 69.6544 40.4819 69.9059 39.8593C70.1574 39.2367 70.5317 38.6712 71.0065 38.1964C71.4812 37.7216 72.0468 37.3473 72.6694 37.0958C73.292 36.8444 73.9588 36.7209 74.6302 36.7327C75.3015 36.7445 75.9636 36.8915 76.577 37.1648C77.1903 37.4381 77.7423 37.8321 78.2 38.3233L92.3434 52.4633C93.2807 53.401 93.8073 54.6725 93.8073 55.9983C93.8073 57.3241 93.2807 58.5957 92.3434 59.5333L78.2034 73.6766C77.7392 74.1411 77.188 74.5095 76.5814 74.761C75.9748 75.0124 75.3245 75.1419 74.6679 75.1421C74.0112 75.1422 73.361 75.013 72.7542 74.7619C72.1475 74.5107 71.5961 74.1425 71.1317 73.6783C70.6673 73.2141 70.2988 72.6629 70.0474 72.0563C69.7959 71.4497 69.6664 70.7995 69.6663 70.1428C69.6661 69.4862 69.7953 68.8359 70.0465 68.2292C70.2976 67.6224 70.6658 67.0711 71.13 66.6066L81.7367 56L71.1334 45.39Z" fill="url(#paint0_linear_1131_149)" fill-opacity="0.5"/>
</g>
<path d="M30.2264 56.0001L30.5797 55.6466L41.1796 45.0366C41.1796 45.0366 41.1796 45.0366 41.1797 45.0366C42.0223 44.1928 42.4956 43.0491 42.4956 41.8566C42.4956 40.6642 42.0223 39.5205 41.1797 38.6768L30.2264 56.0001ZM30.2264 56.0001L30.5798 56.3535M30.2264 56.0001L30.5798 56.3535M30.5798 56.3535L41.1864 66.9601C41.1864 66.9601 41.1865 66.9602 41.1865 66.9602C42.0302 67.8044 42.5041 68.9492 42.5038 70.1427C42.5035 71.3363 42.0291 72.4809 41.1849 73.3247C40.3407 74.1685 39.1959 74.6423 38.0023 74.6421C36.8087 74.6418 35.6641 74.1674 34.8203 73.3232L34.8203 73.3231M30.5798 56.3535L34.8203 73.3231M34.8203 73.3231L20.6771 59.18L34.8203 73.3231ZM34.817 38.6768L34.817 38.6768L20.6771 52.82C20.6771 52.82 20.677 52.8201 20.677 52.8202C19.8344 53.6639 19.3611 54.8076 19.3611 56C19.3611 57.1924 19.8344 58.336 20.6769 59.1798L34.817 38.6768ZM34.817 38.6768C35.2349 38.2586 35.7311 37.9269 36.2773 37.7005M34.817 38.6768L36.2773 37.7005M36.2773 37.7005C36.8235 37.4742 37.4088 37.3577 38 37.3577M36.2773 37.7005L38 37.3577M38 37.3577C38.5912 37.3577 39.1766 37.4742 39.7228 37.7005M38 37.3577L39.7228 37.7005M39.7228 37.7005C40.268 37.9265 40.761 38.2578 41.1796 38.6766L39.7228 37.7005ZM63.1838 25.2154C63.7053 25.1531 64.2333 25.1826 64.7438 25.3022L64.932 25.3548C65.5014 25.5141 66.0339 25.7841 66.4989 26.1493C66.9639 26.5145 67.3524 26.9678 67.6422 27.4832C67.9319 27.9987 68.1173 28.5661 68.1876 29.1532C68.2579 29.7403 68.2118 30.3355 68.052 30.9048L68.052 30.9049L53.282 83.5282L53.2819 83.5283C52.9597 84.6777 52.1941 85.6519 51.1535 86.2367C50.113 86.8216 48.8827 86.9691 47.7334 86.6469C46.584 86.3246 45.6098 85.559 45.0249 84.5185C44.4401 83.4779 44.2926 82.2476 44.6148 81.0983L59.3848 28.4684L59.3848 28.4683C59.5444 27.8992 59.8146 27.3671 60.18 26.9024C60.5453 26.4377 60.9986 26.0495 61.514 25.76C62.0294 25.4706 62.5968 25.2855 63.1838 25.2154ZM71.487 45.0365L71.4807 45.0302L71.4742 45.0242C71.0321 44.6122 70.6775 44.1154 70.4315 43.5634C70.1856 43.0114 70.0533 42.4155 70.0427 41.8113C70.032 41.2071 70.1432 40.6069 70.3695 40.0466C70.5958 39.4863 70.9327 38.9773 71.36 38.5499C71.7873 38.1226 72.2963 37.7858 72.8566 37.5594C73.417 37.3331 74.0172 37.222 74.6214 37.2326C75.2256 37.2433 75.8215 37.3755 76.3735 37.6215C76.9255 37.8674 77.4223 38.2221 77.8342 38.6642L77.8403 38.6706L77.8465 38.6769L91.9898 52.8168C92.8334 53.6607 93.3073 54.8051 93.3073 55.9983C93.3073 57.1916 92.8334 58.3359 91.9898 59.1798L77.8498 73.3231L77.8497 73.3232C77.4319 73.7412 76.9359 74.0728 76.3899 74.2991C75.844 74.5254 75.2588 74.6419 74.6678 74.6421C74.0768 74.6422 73.4915 74.5259 72.9454 74.2999C72.3994 74.0739 71.9032 73.7425 71.4852 73.3247C71.0672 72.9069 70.7356 72.4108 70.5093 71.8649C70.283 71.3189 70.1664 70.7337 70.1663 70.1427C70.1661 69.5517 70.2824 68.9665 70.5085 68.4204C70.7345 67.8744 71.0658 67.3782 71.4836 66.9602C71.4836 66.9602 71.4836 66.9601 71.4837 66.9601L82.0903 56.3535L82.4437 56.0001L82.0904 55.6465L71.487 45.0365Z" stroke="#1B52C8"/>
</g>
<defs>
<filter id="filter0_i_1131_149" x="18.8611" y="24.6836" width="74.9462" height="63.6304" filterUnits="userSpaceOnUse" color-interpolation-filters="sRGB">
<feFlood flood-opacity="0" result="BackgroundImageFix"/>
<feBlend mode="normal" in="SourceGraphic" in2="BackgroundImageFix" result="shape"/>
<feColorMatrix in="SourceAlpha" type="matrix" values="0 0 0 0 0 0 0 0 0 0 0 0 0 0 0 0 0 0 127 0" result="hardAlpha"/>
<feOffset dy="2"/>
<feGaussianBlur stdDeviation="0.5"/>
<feComposite in2="hardAlpha" operator="arithmetic" k2="-1" k3="1"/>
<feColorMatrix type="matrix" values="0 0 0 0 0.333333 0 0 0 0 0.466667 0 0 0 0 1 0 0 0 1 0"/>
<feBlend mode="normal" in2="shape" result="effect1_innerShadow_1131_149"/>
</filter>
<linearGradient id="paint0_linear_1131_149" x1="56.3342" y1="24.6836" x2="56.3342" y2="87.314" gradientUnits="userSpaceOnUse">
<stop stop-color="#4385DC"/>
<stop offset="1" stop-color="#1B52C8"/>
</linearGradient>
<clipPath id="clip0_1131_149">
<rect width="80" height="80" fill="white" transform="translate(16.3334 16)"/>
</clipPath>
</defs>
</svg>
