<svg width="112" height="112" viewBox="0 0 112 112" fill="none" xmlns="http://www.w3.org/2000/svg">
<rect width="112" height="112" rx="56" fill="white"/>
<g clip-path="url(#clip0_1131_134)">
<g filter="url(#filter0_i_1131_134)">
<path fill-rule="evenodd" clip-rule="evenodd" d="M50.7533 26.46C51.3558 26.3537 51.9758 26.4136 52.5467 26.6332C53.1177 26.8528 53.618 27.2238 53.994 27.7063C54.3699 28.1889 54.6073 28.7647 54.6806 29.3721C54.7539 29.9794 54.6604 30.5952 54.41 31.1533C52.7492 34.853 52.2523 38.9701 52.9852 42.9587C53.7181 46.9472 55.6461 50.6188 58.5137 53.4863C61.3812 56.3539 65.0528 58.282 69.0413 59.0149C73.0299 59.7478 77.147 59.2508 80.8467 57.59C81.405 57.3388 82.0212 57.2446 82.629 57.3175C83.2369 57.3904 83.8133 57.6276 84.2964 58.0037C84.7794 58.3798 85.1508 58.8805 85.3705 59.4519C85.5902 60.0233 85.65 60.6438 85.5433 61.2467C84.2386 68.6386 80.2103 75.2729 74.2534 79.84C68.2965 84.4072 60.844 86.5753 53.3667 85.9164C45.8895 85.2576 38.9309 81.8196 33.8645 76.2812C28.7981 70.7427 25.9919 63.5062 26 56C26.0001 48.9532 28.4806 42.1313 33.0065 36.7301C37.5325 31.3289 43.8152 27.6931 50.7533 26.46Z" fill="url(#paint0_linear_1131_134)"/>
</g>
<path d="M80.9493 57.818L80.9491 57.8181C77.2032 59.4997 73.0346 60.0028 68.9962 59.2607C64.9577 58.5187 61.2403 56.5665 58.3369 53.6631C55.4335 50.7597 53.4813 47.0423 52.7393 43.0039C51.9972 38.9654 52.5003 34.7968 54.1819 31.051C54.4137 30.5343 54.5003 29.9642 54.4324 29.402C54.3646 28.8398 54.1448 28.3067 53.7968 27.86C53.4487 27.4133 52.9855 27.0698 52.457 26.8665C51.9285 26.6633 51.3547 26.6078 50.7971 26.7061C43.9168 27.9289 37.6864 31.5344 33.1982 36.8906C28.7099 42.2468 26.2501 49.0119 26.25 56V56.0003C26.242 63.4439 29.0247 70.6201 34.049 76.1124C39.0732 81.6047 45.9738 85.014 53.3887 85.6674C60.8036 86.3208 68.1941 84.1707 74.1013 79.6416C80.0085 75.1126 84.0033 68.5336 85.2971 61.2032L85.2972 61.2031C85.3959 60.645 85.3406 60.0706 85.1372 59.5416C84.9338 59.0126 84.59 58.5491 84.1428 58.201C83.6956 57.8528 83.162 57.6332 82.5993 57.5657C82.0365 57.4982 81.4661 57.5854 80.9493 57.818Z" stroke="#EF7E30" stroke-width="0.5"/>
<g clip-path="url(#clip1_1131_134)">
<g filter="url(#filter1_i_1131_134)">
<path d="M72.3831 24.6844C74.6566 29.8588 78.6256 34.1588 83.6733 36.916C83.7582 36.9622 83.8288 37.0296 83.878 37.1111C83.9272 37.1927 83.9531 37.2855 83.9531 37.38C83.9531 37.4746 83.9272 37.5674 83.878 37.6489C83.8288 37.7305 83.7582 37.7979 83.6733 37.8441C78.6253 40.6017 74.6562 44.9023 72.3831 50.0774C72.3382 50.1756 72.2649 50.2591 72.1722 50.3176C72.0794 50.3762 71.9712 50.4074 71.8605 50.4074C71.7499 50.4074 71.6417 50.3762 71.5489 50.3176C71.4562 50.2591 71.3829 50.1756 71.338 50.0774C69.0649 44.9023 65.0958 40.6017 60.0477 37.8441C59.9629 37.7979 59.8922 37.7305 59.8431 37.6489C59.7939 37.5674 59.768 37.4746 59.768 37.38C59.768 37.2855 59.7939 37.1927 59.8431 37.1111C59.8922 37.0296 59.9629 36.9622 60.0477 36.916C65.0954 34.1588 69.0644 29.8588 71.338 24.6844C71.3829 24.5862 71.4562 24.5027 71.5489 24.4441C71.6417 24.3855 71.7499 24.3544 71.8605 24.3544C71.9712 24.3544 72.0794 24.3855 72.1722 24.4441C72.2649 24.5027 72.3382 24.5862 72.3831 24.6844Z" fill="url(#paint1_linear_1131_134)"/>
</g>
<path d="M83.5537 37.1355L83.5535 37.1354C78.4589 34.3525 74.4514 30.012 72.155 24.7869C72.1306 24.7342 72.0906 24.6883 72.0387 24.6555C71.9862 24.6224 71.9243 24.6044 71.8605 24.6044C71.7968 24.6044 71.7349 24.6224 71.6824 24.6555C71.6305 24.6883 71.5905 24.7342 71.566 24.7869C69.2697 30.012 65.2622 34.3525 60.1676 37.1354L60.1673 37.1355C60.1209 37.1609 60.0831 37.1972 60.0572 37.2402C60.0313 37.2831 60.018 37.3314 60.018 37.38C60.018 37.4287 60.0313 37.477 60.0572 37.5199C60.0831 37.5628 60.1209 37.5992 60.1673 37.6246L60.1676 37.6247C65.2626 40.4079 69.2701 44.7491 71.566 49.9748M83.5537 37.1355L71.338 50.0774M83.5537 37.1355C83.6002 37.1608 83.638 37.1972 83.6639 37.2402C83.6898 37.2831 83.7031 37.3314 83.7031 37.38C83.7031 37.4287 83.6898 37.477 83.6639 37.5199C83.638 37.5628 83.6002 37.5992 83.5537 37.6246L83.5535 37.6247C78.4585 40.4079 74.451 44.7491 72.1551 49.9748M83.5537 37.1355L83.6733 37.8441C78.6253 40.6017 74.6562 44.9023 72.3831 50.0774M71.566 49.9748C71.5663 49.9755 71.5666 49.9762 71.5669 49.9769L71.338 50.0774M71.566 49.9748C71.5658 49.9744 71.5656 49.9739 71.5654 49.9734L71.338 50.0774M71.566 49.9748C71.5905 50.0276 71.6305 50.0735 71.6824 50.1063C71.7349 50.1394 71.7967 50.1574 71.8605 50.1574C71.9243 50.1574 71.9862 50.1394 72.0387 50.1063C72.0906 50.0735 72.1306 50.0276 72.1551 49.9748M71.338 50.0774C71.3829 50.1756 71.4562 50.2591 71.5489 50.3176C71.6417 50.3762 71.7499 50.4074 71.8605 50.4074C71.9712 50.4074 72.0794 50.3762 72.1722 50.3176C72.2649 50.2591 72.3382 50.1756 72.3831 50.0774M72.1551 49.9748C72.1548 49.9755 72.1545 49.9762 72.1542 49.9769L72.3831 50.0774M72.1551 49.9748C72.1553 49.9744 72.1555 49.9739 72.1557 49.9734L72.3831 50.0774" stroke="#EF7E30" stroke-width="0.5"/>
</g>
</g>
<defs>
<filter id="filter0_i_1131_134" x="26" y="26.4088" width="59.5948" height="60.6235" filterUnits="userSpaceOnUse" color-interpolation-filters="sRGB">
<feFlood flood-opacity="0" result="BackgroundImageFix"/>
<feBlend mode="normal" in="SourceGraphic" in2="BackgroundImageFix" result="shape"/>
<feColorMatrix in="SourceAlpha" type="matrix" values="0 0 0 0 0 0 0 0 0 0 0 0 0 0 0 0 0 0 127 0" result="hardAlpha"/>
<feOffset dy="1"/>
<feGaussianBlur stdDeviation="0.5"/>
<feComposite in2="hardAlpha" operator="arithmetic" k2="-1" k3="1"/>
<feColorMatrix type="matrix" values="0 0 0 0 1 0 0 0 0 0.688889 0 0 0 0 0.333333 0 0 0 1 0"/>
<feBlend mode="normal" in2="shape" result="effect1_innerShadow_1131_134"/>
</filter>
<filter id="filter1_i_1131_134" x="59.768" y="24.3544" width="24.1851" height="27.053" filterUnits="userSpaceOnUse" color-interpolation-filters="sRGB">
<feFlood flood-opacity="0" result="BackgroundImageFix"/>
<feBlend mode="normal" in="SourceGraphic" in2="BackgroundImageFix" result="shape"/>
<feColorMatrix in="SourceAlpha" type="matrix" values="0 0 0 0 0 0 0 0 0 0 0 0 0 0 0 0 0 0 127 0" result="hardAlpha"/>
<feOffset dy="1"/>
<feGaussianBlur stdDeviation="0.5"/>
<feComposite in2="hardAlpha" operator="arithmetic" k2="-1" k3="1"/>
<feColorMatrix type="matrix" values="0 0 0 0 1 0 0 0 0 0.688889 0 0 0 0 0.333333 0 0 0 1 0"/>
<feBlend mode="normal" in2="shape" result="effect1_innerShadow_1131_134"/>
</filter>
<linearGradient id="paint0_linear_1131_134" x1="55.7974" y1="26.4088" x2="55.7974" y2="86.0323" gradientUnits="userSpaceOnUse">
<stop stop-color="#FF9953"/>
<stop offset="1" stop-color="#EF7E30"/>
</linearGradient>
<linearGradient id="paint1_linear_1131_134" x1="71.8605" y1="24.3544" x2="71.8605" y2="50.4074" gradientUnits="userSpaceOnUse">
<stop stop-color="#FF9953"/>
<stop offset="1" stop-color="#EF7E30"/>
</linearGradient>
<clipPath id="clip0_1131_134">
<rect width="80" height="80" fill="white" transform="matrix(-1 0 0 1 96 16)"/>
</clipPath>
<clipPath id="clip1_1131_134">
<rect width="32.8205" height="36.9231" fill="white" transform="translate(54.9744 20.1025)"/>
</clipPath>
</defs>
</svg>
